%TF.GenerationSoftware,KiCad,Pcbnew,10.0.0*%
%TF.CreationDate,2026-05-06T08:11:05-05:00*%
%TF.ProjectId,window,77696e64-6f77-42e6-9b69-6361645f7063,rev?*%
%TF.SameCoordinates,Original*%
%TF.FileFunction,Legend,Bot*%
%TF.FilePolarity,Positive*%
%FSLAX46Y46*%
G04 Gerber Fmt 4.6, Leading zero omitted, Abs format (unit mm)*
G04 Created by KiCad (PCBNEW 10.0.0) date 2026-05-06 08:11:05*
%MOMM*%
%LPD*%
G01*
G04 APERTURE LIST*
%ADD10C,0.140208*%
%ADD11C,0.254000*%
G04 APERTURE END LIST*
D10*
X131273807Y-86796645D02*
X131112408Y-86850444D01*
X131112408Y-86850444D02*
X130843410Y-86850444D01*
X130843410Y-86850444D02*
X130735811Y-86796645D01*
X130735811Y-86796645D02*
X130682011Y-86742845D01*
X130682011Y-86742845D02*
X130628212Y-86635246D01*
X130628212Y-86635246D02*
X130628212Y-86527646D01*
X130628212Y-86527646D02*
X130682011Y-86420047D01*
X130682011Y-86420047D02*
X130735811Y-86366248D01*
X130735811Y-86366248D02*
X130843410Y-86312448D01*
X130843410Y-86312448D02*
X131058609Y-86258648D01*
X131058609Y-86258648D02*
X131166208Y-86204849D01*
X131166208Y-86204849D02*
X131220007Y-86151049D01*
X131220007Y-86151049D02*
X131273807Y-86043450D01*
X131273807Y-86043450D02*
X131273807Y-85935851D01*
X131273807Y-85935851D02*
X131220007Y-85828251D01*
X131220007Y-85828251D02*
X131166208Y-85774452D01*
X131166208Y-85774452D02*
X131058609Y-85720652D01*
X131058609Y-85720652D02*
X130789610Y-85720652D01*
X130789610Y-85720652D02*
X130628212Y-85774452D01*
X130251615Y-85720652D02*
X129982617Y-86850444D01*
X129982617Y-86850444D02*
X129767418Y-86043450D01*
X129767418Y-86043450D02*
X129552220Y-86850444D01*
X129552220Y-86850444D02*
X129283222Y-85720652D01*
X128960424Y-85720652D02*
X128261029Y-85720652D01*
X128261029Y-85720652D02*
X128637626Y-86151049D01*
X128637626Y-86151049D02*
X128476227Y-86151049D01*
X128476227Y-86151049D02*
X128368628Y-86204849D01*
X128368628Y-86204849D02*
X128314828Y-86258648D01*
X128314828Y-86258648D02*
X128261029Y-86366248D01*
X128261029Y-86366248D02*
X128261029Y-86635246D01*
X128261029Y-86635246D02*
X128314828Y-86742845D01*
X128314828Y-86742845D02*
X128368628Y-86796645D01*
X128368628Y-86796645D02*
X128476227Y-86850444D01*
X128476227Y-86850444D02*
X128799025Y-86850444D01*
X128799025Y-86850444D02*
X128906624Y-86796645D01*
X128906624Y-86796645D02*
X128960424Y-86742845D01*
X116133807Y-101996645D02*
X115972408Y-102050444D01*
X115972408Y-102050444D02*
X115703410Y-102050444D01*
X115703410Y-102050444D02*
X115595811Y-101996645D01*
X115595811Y-101996645D02*
X115542011Y-101942845D01*
X115542011Y-101942845D02*
X115488212Y-101835246D01*
X115488212Y-101835246D02*
X115488212Y-101727646D01*
X115488212Y-101727646D02*
X115542011Y-101620047D01*
X115542011Y-101620047D02*
X115595811Y-101566248D01*
X115595811Y-101566248D02*
X115703410Y-101512448D01*
X115703410Y-101512448D02*
X115918609Y-101458648D01*
X115918609Y-101458648D02*
X116026208Y-101404849D01*
X116026208Y-101404849D02*
X116080007Y-101351049D01*
X116080007Y-101351049D02*
X116133807Y-101243450D01*
X116133807Y-101243450D02*
X116133807Y-101135851D01*
X116133807Y-101135851D02*
X116080007Y-101028251D01*
X116080007Y-101028251D02*
X116026208Y-100974452D01*
X116026208Y-100974452D02*
X115918609Y-100920652D01*
X115918609Y-100920652D02*
X115649610Y-100920652D01*
X115649610Y-100920652D02*
X115488212Y-100974452D01*
X115111615Y-100920652D02*
X114842617Y-102050444D01*
X114842617Y-102050444D02*
X114627418Y-101243450D01*
X114627418Y-101243450D02*
X114412220Y-102050444D01*
X114412220Y-102050444D02*
X114143222Y-100920652D01*
X113121029Y-102050444D02*
X113766624Y-102050444D01*
X113443826Y-102050444D02*
X113443826Y-100920652D01*
X113443826Y-100920652D02*
X113551426Y-101082051D01*
X113551426Y-101082051D02*
X113659025Y-101189650D01*
X113659025Y-101189650D02*
X113766624Y-101243450D01*
X146513807Y-102036645D02*
X146352408Y-102090444D01*
X146352408Y-102090444D02*
X146083410Y-102090444D01*
X146083410Y-102090444D02*
X145975811Y-102036645D01*
X145975811Y-102036645D02*
X145922011Y-101982845D01*
X145922011Y-101982845D02*
X145868212Y-101875246D01*
X145868212Y-101875246D02*
X145868212Y-101767646D01*
X145868212Y-101767646D02*
X145922011Y-101660047D01*
X145922011Y-101660047D02*
X145975811Y-101606248D01*
X145975811Y-101606248D02*
X146083410Y-101552448D01*
X146083410Y-101552448D02*
X146298609Y-101498648D01*
X146298609Y-101498648D02*
X146406208Y-101444849D01*
X146406208Y-101444849D02*
X146460007Y-101391049D01*
X146460007Y-101391049D02*
X146513807Y-101283450D01*
X146513807Y-101283450D02*
X146513807Y-101175851D01*
X146513807Y-101175851D02*
X146460007Y-101068251D01*
X146460007Y-101068251D02*
X146406208Y-101014452D01*
X146406208Y-101014452D02*
X146298609Y-100960652D01*
X146298609Y-100960652D02*
X146029610Y-100960652D01*
X146029610Y-100960652D02*
X145868212Y-101014452D01*
X145491615Y-100960652D02*
X145222617Y-102090444D01*
X145222617Y-102090444D02*
X145007418Y-101283450D01*
X145007418Y-101283450D02*
X144792220Y-102090444D01*
X144792220Y-102090444D02*
X144523222Y-100960652D01*
X143608628Y-101337249D02*
X143608628Y-102090444D01*
X143877626Y-100906853D02*
X144146624Y-101713847D01*
X144146624Y-101713847D02*
X143447229Y-101713847D01*
X131373807Y-118506645D02*
X131212408Y-118560444D01*
X131212408Y-118560444D02*
X130943410Y-118560444D01*
X130943410Y-118560444D02*
X130835811Y-118506645D01*
X130835811Y-118506645D02*
X130782011Y-118452845D01*
X130782011Y-118452845D02*
X130728212Y-118345246D01*
X130728212Y-118345246D02*
X130728212Y-118237646D01*
X130728212Y-118237646D02*
X130782011Y-118130047D01*
X130782011Y-118130047D02*
X130835811Y-118076248D01*
X130835811Y-118076248D02*
X130943410Y-118022448D01*
X130943410Y-118022448D02*
X131158609Y-117968648D01*
X131158609Y-117968648D02*
X131266208Y-117914849D01*
X131266208Y-117914849D02*
X131320007Y-117861049D01*
X131320007Y-117861049D02*
X131373807Y-117753450D01*
X131373807Y-117753450D02*
X131373807Y-117645851D01*
X131373807Y-117645851D02*
X131320007Y-117538251D01*
X131320007Y-117538251D02*
X131266208Y-117484452D01*
X131266208Y-117484452D02*
X131158609Y-117430652D01*
X131158609Y-117430652D02*
X130889610Y-117430652D01*
X130889610Y-117430652D02*
X130728212Y-117484452D01*
X130351615Y-117430652D02*
X130082617Y-118560444D01*
X130082617Y-118560444D02*
X129867418Y-117753450D01*
X129867418Y-117753450D02*
X129652220Y-118560444D01*
X129652220Y-118560444D02*
X129383222Y-117430652D01*
X129006624Y-117538251D02*
X128952824Y-117484452D01*
X128952824Y-117484452D02*
X128845225Y-117430652D01*
X128845225Y-117430652D02*
X128576227Y-117430652D01*
X128576227Y-117430652D02*
X128468628Y-117484452D01*
X128468628Y-117484452D02*
X128414828Y-117538251D01*
X128414828Y-117538251D02*
X128361029Y-117645851D01*
X128361029Y-117645851D02*
X128361029Y-117753450D01*
X128361029Y-117753450D02*
X128414828Y-117914849D01*
X128414828Y-117914849D02*
X129060424Y-118560444D01*
X129060424Y-118560444D02*
X128361029Y-118560444D01*
%TO.C,SW3*%
D11*
X132185248Y-76154000D02*
X132185248Y-77404000D01*
X132185248Y-79904000D02*
X132185248Y-82404000D01*
X132185248Y-84904000D02*
X132185248Y-86154000D01*
X133185248Y-87154000D02*
X143185248Y-87154000D01*
X136185248Y-79154000D02*
X136185248Y-83154000D01*
X136185248Y-83154000D02*
X140185248Y-83154000D01*
X140185248Y-79154000D02*
X136185248Y-79154000D01*
X140185248Y-83154000D02*
X140185248Y-79154000D01*
X143185248Y-75154000D02*
X133185248Y-75154000D01*
X144185248Y-76154000D02*
X144185248Y-77404000D01*
X144185248Y-79904000D02*
X144185248Y-82404000D01*
X144185248Y-84904000D02*
X144185248Y-86154000D01*
X132185248Y-76154000D02*
G75*
G02*
X133185248Y-75154000I1000000J0D01*
G01*
X133185248Y-87154000D02*
G75*
G02*
X132185248Y-86154000I0J1000000D01*
G01*
X143185248Y-75154000D02*
G75*
G02*
X144185248Y-76154000I1J-999999D01*
G01*
X144185248Y-86154000D02*
G75*
G02*
X143185248Y-87154000I-999999J-1D01*
G01*
X141720779Y-81154000D02*
G75*
G02*
X134649717Y-81154000I-3535531J0D01*
G01*
X134649717Y-81154000D02*
G75*
G02*
X141720779Y-81154000I3535531J0D01*
G01*
%TO.C,SW1*%
X117045248Y-91354000D02*
X117045248Y-92604000D01*
X117045248Y-95104000D02*
X117045248Y-97604000D01*
X117045248Y-100104000D02*
X117045248Y-101354000D01*
X118045248Y-102354000D02*
X128045248Y-102354000D01*
X121045248Y-94354000D02*
X121045248Y-98354000D01*
X121045248Y-98354000D02*
X125045248Y-98354000D01*
X125045248Y-94354000D02*
X121045248Y-94354000D01*
X125045248Y-98354000D02*
X125045248Y-94354000D01*
X128045248Y-90354000D02*
X118045248Y-90354000D01*
X129045248Y-91354000D02*
X129045248Y-92604000D01*
X129045248Y-95104000D02*
X129045248Y-97604000D01*
X129045248Y-100104000D02*
X129045248Y-101354000D01*
X117045248Y-91354000D02*
G75*
G02*
X118045248Y-90354000I1000000J0D01*
G01*
X118045248Y-102354000D02*
G75*
G02*
X117045248Y-101354000I0J1000000D01*
G01*
X128045248Y-90354000D02*
G75*
G02*
X129045248Y-91354000I1J-999999D01*
G01*
X129045248Y-101354000D02*
G75*
G02*
X128045248Y-102354000I-999999J-1D01*
G01*
X126580779Y-96354000D02*
G75*
G02*
X119509717Y-96354000I-3535531J0D01*
G01*
X119509717Y-96354000D02*
G75*
G02*
X126580779Y-96354000I3535531J0D01*
G01*
%TO.C,SW4*%
X147425248Y-91394000D02*
X147425248Y-92644000D01*
X147425248Y-95144000D02*
X147425248Y-97644000D01*
X147425248Y-100144000D02*
X147425248Y-101394000D01*
X148425248Y-102394000D02*
X158425248Y-102394000D01*
X151425248Y-94394000D02*
X151425248Y-98394000D01*
X151425248Y-98394000D02*
X155425248Y-98394000D01*
X155425248Y-94394000D02*
X151425248Y-94394000D01*
X155425248Y-98394000D02*
X155425248Y-94394000D01*
X158425248Y-90394000D02*
X148425248Y-90394000D01*
X159425248Y-91394000D02*
X159425248Y-92644000D01*
X159425248Y-95144000D02*
X159425248Y-97644000D01*
X159425248Y-100144000D02*
X159425248Y-101394000D01*
X147425248Y-91394000D02*
G75*
G02*
X148425248Y-90394000I1000000J0D01*
G01*
X148425248Y-102394000D02*
G75*
G02*
X147425248Y-101394000I0J1000000D01*
G01*
X158425248Y-90394000D02*
G75*
G02*
X159425248Y-91394000I1J-999999D01*
G01*
X159425248Y-101394000D02*
G75*
G02*
X158425248Y-102394000I-999999J-1D01*
G01*
X156960779Y-96394000D02*
G75*
G02*
X149889717Y-96394000I-3535531J0D01*
G01*
X149889717Y-96394000D02*
G75*
G02*
X156960779Y-96394000I3535531J0D01*
G01*
%TO.C,SW2*%
X132285248Y-107864000D02*
X132285248Y-109114000D01*
X132285248Y-111614000D02*
X132285248Y-114114000D01*
X132285248Y-116614000D02*
X132285248Y-117864000D01*
X133285248Y-118864000D02*
X143285248Y-118864000D01*
X136285248Y-110864000D02*
X136285248Y-114864000D01*
X136285248Y-114864000D02*
X140285248Y-114864000D01*
X140285248Y-110864000D02*
X136285248Y-110864000D01*
X140285248Y-114864000D02*
X140285248Y-110864000D01*
X143285248Y-106864000D02*
X133285248Y-106864000D01*
X144285248Y-107864000D02*
X144285248Y-109114000D01*
X144285248Y-111614000D02*
X144285248Y-114114000D01*
X144285248Y-116614000D02*
X144285248Y-117864000D01*
X132285248Y-107864000D02*
G75*
G02*
X133285248Y-106864000I1000000J0D01*
G01*
X133285248Y-118864000D02*
G75*
G02*
X132285248Y-117864000I0J1000000D01*
G01*
X143285248Y-106864000D02*
G75*
G02*
X144285248Y-107864000I1J-999999D01*
G01*
X144285248Y-117864000D02*
G75*
G02*
X143285248Y-118864000I-999999J-1D01*
G01*
X141820779Y-112864000D02*
G75*
G02*
X134749717Y-112864000I-3535531J0D01*
G01*
X134749717Y-112864000D02*
G75*
G02*
X141820779Y-112864000I3535531J0D01*
G01*
%TD*%
M02*
