%TF.GenerationSoftware,KiCad,Pcbnew,10.0.0*%
%TF.CreationDate,2026-05-06T08:11:05-05:00*%
%TF.ProjectId,window,77696e64-6f77-42e6-9b69-6361645f7063,rev?*%
%TF.SameCoordinates,Original*%
%TF.FileFunction,Soldermask,Bot*%
%TF.FilePolarity,Negative*%
%FSLAX46Y46*%
G04 Gerber Fmt 4.6, Leading zero omitted, Abs format (unit mm)*
G04 Created by KiCad (PCBNEW 10.0.0) date 2026-05-06 08:11:05*
%MOMM*%
%LPD*%
G01*
G04 APERTURE LIST*
G04 Aperture macros list*
%AMRoundRect*
0 Rectangle with rounded corners*
0 $1 Rounding radius*
0 $2 $3 $4 $5 $6 $7 $8 $9 X,Y pos of 4 corners*
0 Add a 4 corners polygon primitive as box body*
4,1,4,$2,$3,$4,$5,$6,$7,$8,$9,$2,$3,0*
0 Add four circle primitives for the rounded corners*
1,1,$1+$1,$2,$3*
1,1,$1+$1,$4,$5*
1,1,$1+$1,$6,$7*
1,1,$1+$1,$8,$9*
0 Add four rect primitives between the rounded corners*
20,1,$1+$1,$2,$3,$4,$5,0*
20,1,$1+$1,$4,$5,$6,$7,0*
20,1,$1+$1,$6,$7,$8,$9,0*
20,1,$1+$1,$8,$9,$2,$3,0*%
%AMFreePoly0*
4,1,25,0.364611,0.820373,0.369513,0.815882,0.815882,0.369513,0.837910,0.322272,0.838200,0.315631,0.838200,-0.315631,0.820373,-0.364611,0.815882,-0.369513,0.369513,-0.815882,0.322272,-0.837910,0.315631,-0.838200,-0.315631,-0.838200,-0.364611,-0.820373,-0.369513,-0.815882,-0.815882,-0.369513,-0.837910,-0.322272,-0.838200,-0.315631,-0.838200,0.315631,-0.820373,0.364611,-0.815882,0.369513,
-0.369513,0.815882,-0.322272,0.837910,-0.315631,0.838200,0.315631,0.838200,0.364611,0.820373,0.364611,0.820373,$1*%
G04 Aperture macros list end*
%ADD10C,0.609600*%
%ADD11C,3.054000*%
%ADD12C,4.597400*%
%ADD13RoundRect,0.076200X-0.762000X-0.762000X0.762000X-0.762000X0.762000X0.762000X-0.762000X0.762000X0*%
%ADD14FreePoly0,0.000000*%
%ADD15C,1.879600*%
%ADD16C,1.700000*%
%ADD17R,1.700000X1.700000*%
%ADD18C,2.082800*%
%ADD19O,2.801600X5.501600*%
%ADD20O,5.501600X2.801600*%
%ADD21C,1.272400*%
%ADD22RoundRect,0.584200X-0.000010X-0.000010X0.000010X-0.000010X0.000010X0.000010X-0.000010X0.000010X0*%
%ADD23C,2.112400*%
G04 APERTURE END LIST*
%TO.C,FUD2*%
D10*
X31977248Y-77874000D02*
G75*
G02*
X30453248Y-77874000I-762000J0D01*
G01*
X30453248Y-77874000D02*
G75*
G02*
X31977248Y-77874000I762000J0D01*
G01*
%TO.C,FUD4*%
X266927248Y-116609000D02*
G75*
G02*
X265403248Y-116609000I-762000J0D01*
G01*
X265403248Y-116609000D02*
G75*
G02*
X266927248Y-116609000I762000J0D01*
G01*
%TD*%
D11*
%TO.C,J1*%
X25790248Y-106624000D03*
X30790248Y-106624000D03*
X30790248Y-99624000D03*
X25790248Y-99624000D03*
%TD*%
D12*
%TO.C,M4*%
X271880248Y-77874000D03*
%TD*%
D13*
%TO.C,U1*%
X256640248Y-82954000D03*
D14*
X256640248Y-85494000D03*
X254100248Y-82954000D03*
X254100248Y-85494000D03*
X251560248Y-82954000D03*
X251560248Y-85494000D03*
X249020248Y-82954000D03*
X249020248Y-85494000D03*
X246480248Y-82954000D03*
X246480248Y-85494000D03*
X243940248Y-82954000D03*
X243940248Y-85494000D03*
X241400248Y-82954000D03*
X241400248Y-85494000D03*
X238860248Y-82954000D03*
X238860248Y-85494000D03*
X236320248Y-82954000D03*
X236320248Y-85494000D03*
X233780248Y-82954000D03*
X233780248Y-85494000D03*
X231240248Y-82954000D03*
X231240248Y-85494000D03*
X228700248Y-82954000D03*
X228700248Y-85494000D03*
X226160248Y-82954000D03*
X226160248Y-85494000D03*
X223620248Y-82954000D03*
X223620248Y-85494000D03*
X221080248Y-82954000D03*
X221080248Y-85494000D03*
X218540248Y-82954000D03*
X218540248Y-85494000D03*
X216000248Y-82954000D03*
X216000248Y-85494000D03*
X213460248Y-82954000D03*
X213460248Y-85494000D03*
D13*
X256640248Y-108354000D03*
D14*
X256640248Y-110894000D03*
X254100248Y-108354000D03*
X254100248Y-110894000D03*
X251560248Y-108354000D03*
X251560248Y-110894000D03*
X249020248Y-108354000D03*
X249020248Y-110894000D03*
X246480248Y-108354000D03*
X246480248Y-110894000D03*
X243940248Y-108354000D03*
X243940248Y-110894000D03*
X241400248Y-108354000D03*
X241400248Y-110894000D03*
X238860248Y-108354000D03*
X238860248Y-110894000D03*
X236320248Y-108354000D03*
X236320248Y-110894000D03*
X233780248Y-108354000D03*
X233780248Y-110894000D03*
X231240248Y-108354000D03*
X231240248Y-110894000D03*
X228700248Y-108354000D03*
X228700248Y-110894000D03*
X226160248Y-108354000D03*
X226160248Y-110894000D03*
X223620248Y-108354000D03*
X223620248Y-110894000D03*
X221080248Y-108354000D03*
X221080248Y-110894000D03*
X218540248Y-108354000D03*
X218540248Y-110894000D03*
X216000248Y-108354000D03*
X216000248Y-110894000D03*
X213460248Y-108354000D03*
X213460248Y-110894000D03*
%TD*%
D15*
%TO.C,X1*%
X51290248Y-87464000D03*
X53830248Y-87464000D03*
X51290248Y-90004000D03*
X53830248Y-90004000D03*
X51290248Y-92544000D03*
X53830248Y-92544000D03*
X51290248Y-95084000D03*
X53830248Y-95084000D03*
X51290248Y-97624000D03*
X53830248Y-97624000D03*
X51290248Y-100164000D03*
X53830248Y-100164000D03*
X51290248Y-102704000D03*
X53830248Y-102704000D03*
X51290248Y-105244000D03*
X53830248Y-105244000D03*
%TD*%
D16*
%TO.C,U3*%
X178925248Y-105879000D03*
X178925248Y-103339000D03*
X178925248Y-100799000D03*
X178925248Y-98259000D03*
X178925248Y-95719000D03*
X178925248Y-93179000D03*
X178925248Y-90639000D03*
X178925248Y-88099000D03*
X166631648Y-105879000D03*
X166631648Y-103339000D03*
X166631648Y-100799000D03*
X166631648Y-98259000D03*
X166631648Y-95719000D03*
X166631648Y-93179000D03*
X166631648Y-90639000D03*
X166631648Y-88099000D03*
X166631648Y-85559000D03*
X178925248Y-85559000D03*
D17*
X178925248Y-108419000D03*
X166631648Y-108419000D03*
%TD*%
D12*
%TO.C,M3*%
X271880248Y-115974000D03*
%TD*%
D18*
%TO.C,U5*%
X203635048Y-91624000D03*
X201095048Y-91624000D03*
X198555048Y-91624000D03*
X196015048Y-91624000D03*
X193475048Y-91624000D03*
X190935048Y-91624000D03*
X188395048Y-91624000D03*
X185855048Y-91624000D03*
%TD*%
D16*
%TO.C,U2*%
X108880048Y-105879000D03*
X108880048Y-103339000D03*
X108880048Y-100799000D03*
X108880048Y-98259000D03*
X108880048Y-95719000D03*
X108880048Y-93179000D03*
X108880048Y-90639000D03*
X108880048Y-88099000D03*
X96586448Y-105879000D03*
X96586448Y-103339000D03*
X96586448Y-100799000D03*
X96586448Y-98259000D03*
X96586448Y-95719000D03*
X96586448Y-93179000D03*
X96586448Y-90639000D03*
X96586448Y-88099000D03*
X96586448Y-85559000D03*
X108880048Y-85559000D03*
D17*
X108880048Y-108419000D03*
X96586448Y-108419000D03*
%TD*%
D12*
%TO.C,M2*%
X24230248Y-77874000D03*
%TD*%
D19*
%TO.C,U6*%
X30890248Y-85774000D03*
X24640248Y-85774000D03*
D20*
X28040248Y-90574000D03*
%TD*%
D21*
%TO.C,U4*%
X76055248Y-113649000D03*
X76055248Y-107149000D03*
%TD*%
D11*
%TO.C,J2*%
X36840248Y-106624000D03*
X41840248Y-106624000D03*
X41840248Y-99624000D03*
X36840248Y-99624000D03*
%TD*%
D12*
%TO.C,M1*%
X24230248Y-115974000D03*
%TD*%
D22*
%TO.C,FUD2*%
X31215248Y-77874000D03*
%TD*%
D23*
%TO.C,SW3*%
X144435248Y-78654000D03*
X144435248Y-83654000D03*
X131935248Y-78654000D03*
X131935248Y-83654000D03*
%TD*%
%TO.C,SW1*%
X129295248Y-93854000D03*
X129295248Y-98854000D03*
X116795248Y-93854000D03*
X116795248Y-98854000D03*
%TD*%
D22*
%TO.C,FUD4*%
X266165248Y-116609000D03*
%TD*%
D23*
%TO.C,SW4*%
X159675248Y-93894000D03*
X159675248Y-98894000D03*
X147175248Y-93894000D03*
X147175248Y-98894000D03*
%TD*%
%TO.C,SW2*%
X144535248Y-110364000D03*
X144535248Y-115364000D03*
X132035248Y-110364000D03*
X132035248Y-115364000D03*
%TD*%
M02*
