%TF.GenerationSoftware,KiCad,Pcbnew,10.0.0*%
%TF.CreationDate,2026-05-06T08:11:05-05:00*%
%TF.ProjectId,window,77696e64-6f77-42e6-9b69-6361645f7063,rev?*%
%TF.SameCoordinates,Original*%
%TF.FileFunction,Legend,Top*%
%TF.FilePolarity,Positive*%
%FSLAX46Y46*%
G04 Gerber Fmt 4.6, Leading zero omitted, Abs format (unit mm)*
G04 Created by KiCad (PCBNEW 10.0.0) date 2026-05-06 08:11:05*
%MOMM*%
%LPD*%
G01*
G04 APERTURE LIST*
%ADD10C,0.127000*%
%ADD11C,0.203200*%
%ADD12C,0.150000*%
%ADD13C,0.152400*%
%ADD14C,0.254000*%
%ADD15C,0.198120*%
%ADD16C,0.300000*%
%ADD17C,0.140208*%
%ADD18C,0.120000*%
%ADD19C,0.100000*%
G04 APERTURE END LIST*
D10*
X66040000Y-92710000D02*
X66040000Y-93980000D01*
X66040000Y-96520000D02*
X71120000Y-100330000D01*
X66040000Y-97790000D02*
X72390000Y-100330000D01*
X66040000Y-99060000D02*
X73660000Y-100330000D01*
X66040000Y-100330000D02*
X66040000Y-92710000D01*
X67310000Y-100330000D02*
X66040000Y-92710000D01*
X68580000Y-100330000D02*
X66040000Y-93980000D01*
X69850000Y-100330000D02*
X66040000Y-95250000D01*
X73660000Y-100330000D02*
X66040000Y-100330000D01*
X80010000Y-87630000D02*
X87630000Y-87630000D01*
X83820000Y-87630000D02*
X87630000Y-92710000D01*
X85090000Y-87630000D02*
X87630000Y-93980000D01*
X86360000Y-87630000D02*
X87630000Y-95250000D01*
X87630000Y-87630000D02*
X87630000Y-95250000D01*
X87630000Y-88900000D02*
X80010000Y-87630000D01*
X87630000Y-90170000D02*
X81280000Y-87630000D01*
X87630000Y-91440000D02*
X82550000Y-87630000D01*
X87630000Y-95250000D02*
X87630000Y-93980000D01*
X33297075Y-82443924D02*
X33297075Y-81631124D01*
X33684123Y-82443924D02*
X33684123Y-81631124D01*
X33684123Y-81631124D02*
X34148580Y-82443924D01*
X34148580Y-82443924D02*
X34148580Y-81631124D01*
X34535628Y-82366515D02*
X34574333Y-82405220D01*
X34574333Y-82405220D02*
X34535628Y-82443924D01*
X34535628Y-82443924D02*
X34496924Y-82405220D01*
X34496924Y-82405220D02*
X34535628Y-82366515D01*
X34535628Y-82366515D02*
X34535628Y-82443924D01*
X34535628Y-81940762D02*
X34574333Y-81979467D01*
X34574333Y-81979467D02*
X34535628Y-82018172D01*
X34535628Y-82018172D02*
X34496924Y-81979467D01*
X34496924Y-81979467D02*
X34535628Y-81940762D01*
X34535628Y-81940762D02*
X34535628Y-82018172D01*
X35929000Y-81631124D02*
X35541952Y-81631124D01*
X35541952Y-81631124D02*
X35503248Y-82018172D01*
X35503248Y-82018172D02*
X35541952Y-81979467D01*
X35541952Y-81979467D02*
X35619362Y-81940762D01*
X35619362Y-81940762D02*
X35812886Y-81940762D01*
X35812886Y-81940762D02*
X35890295Y-81979467D01*
X35890295Y-81979467D02*
X35929000Y-82018172D01*
X35929000Y-82018172D02*
X35967705Y-82095581D01*
X35967705Y-82095581D02*
X35967705Y-82289105D01*
X35967705Y-82289105D02*
X35929000Y-82366515D01*
X35929000Y-82366515D02*
X35890295Y-82405220D01*
X35890295Y-82405220D02*
X35812886Y-82443924D01*
X35812886Y-82443924D02*
X35619362Y-82443924D01*
X35619362Y-82443924D02*
X35541952Y-82405220D01*
X35541952Y-82405220D02*
X35503248Y-82366515D01*
X36199933Y-81631124D02*
X36470866Y-82443924D01*
X36470866Y-82443924D02*
X36741800Y-81631124D01*
X36974029Y-81708534D02*
X37012733Y-81669829D01*
X37012733Y-81669829D02*
X37090143Y-81631124D01*
X37090143Y-81631124D02*
X37283667Y-81631124D01*
X37283667Y-81631124D02*
X37361076Y-81669829D01*
X37361076Y-81669829D02*
X37399781Y-81708534D01*
X37399781Y-81708534D02*
X37438486Y-81785943D01*
X37438486Y-81785943D02*
X37438486Y-81863353D01*
X37438486Y-81863353D02*
X37399781Y-81979467D01*
X37399781Y-81979467D02*
X36935324Y-82443924D01*
X36935324Y-82443924D02*
X37438486Y-82443924D01*
X37748124Y-82211696D02*
X38135171Y-82211696D01*
X37670714Y-82443924D02*
X37941647Y-81631124D01*
X37941647Y-81631124D02*
X38212581Y-82443924D01*
X39102790Y-82443924D02*
X39102790Y-81631124D01*
X39102790Y-81631124D02*
X39296314Y-81631124D01*
X39296314Y-81631124D02*
X39412428Y-81669829D01*
X39412428Y-81669829D02*
X39489838Y-81747239D01*
X39489838Y-81747239D02*
X39528543Y-81824648D01*
X39528543Y-81824648D02*
X39567247Y-81979467D01*
X39567247Y-81979467D02*
X39567247Y-82095581D01*
X39567247Y-82095581D02*
X39528543Y-82250400D01*
X39528543Y-82250400D02*
X39489838Y-82327810D01*
X39489838Y-82327810D02*
X39412428Y-82405220D01*
X39412428Y-82405220D02*
X39296314Y-82443924D01*
X39296314Y-82443924D02*
X39102790Y-82443924D01*
X40380047Y-82366515D02*
X40341343Y-82405220D01*
X40341343Y-82405220D02*
X40225228Y-82443924D01*
X40225228Y-82443924D02*
X40147819Y-82443924D01*
X40147819Y-82443924D02*
X40031705Y-82405220D01*
X40031705Y-82405220D02*
X39954295Y-82327810D01*
X39954295Y-82327810D02*
X39915590Y-82250400D01*
X39915590Y-82250400D02*
X39876886Y-82095581D01*
X39876886Y-82095581D02*
X39876886Y-81979467D01*
X39876886Y-81979467D02*
X39915590Y-81824648D01*
X39915590Y-81824648D02*
X39954295Y-81747239D01*
X39954295Y-81747239D02*
X40031705Y-81669829D01*
X40031705Y-81669829D02*
X40147819Y-81631124D01*
X40147819Y-81631124D02*
X40225228Y-81631124D01*
X40225228Y-81631124D02*
X40341343Y-81669829D01*
X40341343Y-81669829D02*
X40380047Y-81708534D01*
D11*
X68829798Y-90517161D02*
X69023322Y-91329961D01*
X69023322Y-91329961D02*
X69178141Y-90749390D01*
X69178141Y-90749390D02*
X69332960Y-91329961D01*
X69332960Y-91329961D02*
X69526484Y-90517161D01*
X69836121Y-91329961D02*
X69836121Y-90788095D01*
X69836121Y-90517161D02*
X69797417Y-90555866D01*
X69797417Y-90555866D02*
X69836121Y-90594571D01*
X69836121Y-90594571D02*
X69874826Y-90555866D01*
X69874826Y-90555866D02*
X69836121Y-90517161D01*
X69836121Y-90517161D02*
X69836121Y-90594571D01*
X70223169Y-90788095D02*
X70223169Y-91329961D01*
X70223169Y-90865504D02*
X70261874Y-90826799D01*
X70261874Y-90826799D02*
X70339284Y-90788095D01*
X70339284Y-90788095D02*
X70455398Y-90788095D01*
X70455398Y-90788095D02*
X70532807Y-90826799D01*
X70532807Y-90826799D02*
X70571512Y-90904209D01*
X70571512Y-90904209D02*
X70571512Y-91329961D01*
X71306902Y-91329961D02*
X71306902Y-90517161D01*
X71306902Y-91291257D02*
X71229493Y-91329961D01*
X71229493Y-91329961D02*
X71074674Y-91329961D01*
X71074674Y-91329961D02*
X70997264Y-91291257D01*
X70997264Y-91291257D02*
X70958559Y-91252552D01*
X70958559Y-91252552D02*
X70919855Y-91175142D01*
X70919855Y-91175142D02*
X70919855Y-90942914D01*
X70919855Y-90942914D02*
X70958559Y-90865504D01*
X70958559Y-90865504D02*
X70997264Y-90826799D01*
X70997264Y-90826799D02*
X71074674Y-90788095D01*
X71074674Y-90788095D02*
X71229493Y-90788095D01*
X71229493Y-90788095D02*
X71306902Y-90826799D01*
X71810064Y-91329961D02*
X71732654Y-91291257D01*
X71732654Y-91291257D02*
X71693949Y-91252552D01*
X71693949Y-91252552D02*
X71655245Y-91175142D01*
X71655245Y-91175142D02*
X71655245Y-90942914D01*
X71655245Y-90942914D02*
X71693949Y-90865504D01*
X71693949Y-90865504D02*
X71732654Y-90826799D01*
X71732654Y-90826799D02*
X71810064Y-90788095D01*
X71810064Y-90788095D02*
X71926178Y-90788095D01*
X71926178Y-90788095D02*
X72003587Y-90826799D01*
X72003587Y-90826799D02*
X72042292Y-90865504D01*
X72042292Y-90865504D02*
X72080997Y-90942914D01*
X72080997Y-90942914D02*
X72080997Y-91175142D01*
X72080997Y-91175142D02*
X72042292Y-91252552D01*
X72042292Y-91252552D02*
X72003587Y-91291257D01*
X72003587Y-91291257D02*
X71926178Y-91329961D01*
X71926178Y-91329961D02*
X71810064Y-91329961D01*
X72351930Y-90788095D02*
X72506749Y-91329961D01*
X72506749Y-91329961D02*
X72661568Y-90942914D01*
X72661568Y-90942914D02*
X72816387Y-91329961D01*
X72816387Y-91329961D02*
X72971206Y-90788095D01*
X73784006Y-90788095D02*
X74093644Y-90788095D01*
X73900120Y-90517161D02*
X73900120Y-91213847D01*
X73900120Y-91213847D02*
X73938825Y-91291257D01*
X73938825Y-91291257D02*
X74016235Y-91329961D01*
X74016235Y-91329961D02*
X74093644Y-91329961D01*
X74480692Y-91329961D02*
X74403282Y-91291257D01*
X74403282Y-91291257D02*
X74364577Y-91252552D01*
X74364577Y-91252552D02*
X74325873Y-91175142D01*
X74325873Y-91175142D02*
X74325873Y-90942914D01*
X74325873Y-90942914D02*
X74364577Y-90865504D01*
X74364577Y-90865504D02*
X74403282Y-90826799D01*
X74403282Y-90826799D02*
X74480692Y-90788095D01*
X74480692Y-90788095D02*
X74596806Y-90788095D01*
X74596806Y-90788095D02*
X74674215Y-90826799D01*
X74674215Y-90826799D02*
X74712920Y-90865504D01*
X74712920Y-90865504D02*
X74751625Y-90942914D01*
X74751625Y-90942914D02*
X74751625Y-91175142D01*
X74751625Y-91175142D02*
X74712920Y-91252552D01*
X74712920Y-91252552D02*
X74674215Y-91291257D01*
X74674215Y-91291257D02*
X74596806Y-91329961D01*
X74596806Y-91329961D02*
X74480692Y-91329961D01*
X75680539Y-91097733D02*
X76067586Y-91097733D01*
X75603129Y-91329961D02*
X75874062Y-90517161D01*
X75874062Y-90517161D02*
X76144996Y-91329961D01*
X76415929Y-90788095D02*
X76415929Y-91329961D01*
X76415929Y-90865504D02*
X76454634Y-90826799D01*
X76454634Y-90826799D02*
X76532044Y-90788095D01*
X76532044Y-90788095D02*
X76648158Y-90788095D01*
X76648158Y-90788095D02*
X76725567Y-90826799D01*
X76725567Y-90826799D02*
X76764272Y-90904209D01*
X76764272Y-90904209D02*
X76764272Y-91329961D01*
X77267434Y-91329961D02*
X77190024Y-91291257D01*
X77190024Y-91291257D02*
X77151319Y-91252552D01*
X77151319Y-91252552D02*
X77112615Y-91175142D01*
X77112615Y-91175142D02*
X77112615Y-90942914D01*
X77112615Y-90942914D02*
X77151319Y-90865504D01*
X77151319Y-90865504D02*
X77190024Y-90826799D01*
X77190024Y-90826799D02*
X77267434Y-90788095D01*
X77267434Y-90788095D02*
X77383548Y-90788095D01*
X77383548Y-90788095D02*
X77460957Y-90826799D01*
X77460957Y-90826799D02*
X77499662Y-90865504D01*
X77499662Y-90865504D02*
X77538367Y-90942914D01*
X77538367Y-90942914D02*
X77538367Y-91175142D01*
X77538367Y-91175142D02*
X77499662Y-91252552D01*
X77499662Y-91252552D02*
X77460957Y-91291257D01*
X77460957Y-91291257D02*
X77383548Y-91329961D01*
X77383548Y-91329961D02*
X77267434Y-91329961D01*
X77770595Y-90788095D02*
X78080233Y-90788095D01*
X77886709Y-90517161D02*
X77886709Y-91213847D01*
X77886709Y-91213847D02*
X77925414Y-91291257D01*
X77925414Y-91291257D02*
X78002824Y-91329961D01*
X78002824Y-91329961D02*
X78080233Y-91329961D01*
X78351166Y-91329961D02*
X78351166Y-90517161D01*
X78699509Y-91329961D02*
X78699509Y-90904209D01*
X78699509Y-90904209D02*
X78660804Y-90826799D01*
X78660804Y-90826799D02*
X78583395Y-90788095D01*
X78583395Y-90788095D02*
X78467281Y-90788095D01*
X78467281Y-90788095D02*
X78389871Y-90826799D01*
X78389871Y-90826799D02*
X78351166Y-90865504D01*
X79396194Y-91291257D02*
X79318785Y-91329961D01*
X79318785Y-91329961D02*
X79163966Y-91329961D01*
X79163966Y-91329961D02*
X79086556Y-91291257D01*
X79086556Y-91291257D02*
X79047852Y-91213847D01*
X79047852Y-91213847D02*
X79047852Y-90904209D01*
X79047852Y-90904209D02*
X79086556Y-90826799D01*
X79086556Y-90826799D02*
X79163966Y-90788095D01*
X79163966Y-90788095D02*
X79318785Y-90788095D01*
X79318785Y-90788095D02*
X79396194Y-90826799D01*
X79396194Y-90826799D02*
X79434899Y-90904209D01*
X79434899Y-90904209D02*
X79434899Y-90981618D01*
X79434899Y-90981618D02*
X79047852Y-91059028D01*
X79783242Y-91329961D02*
X79783242Y-90788095D01*
X79783242Y-90942914D02*
X79821947Y-90865504D01*
X79821947Y-90865504D02*
X79860652Y-90826799D01*
X79860652Y-90826799D02*
X79938061Y-90788095D01*
X79938061Y-90788095D02*
X80015471Y-90788095D01*
X80828271Y-90517161D02*
X81021795Y-91329961D01*
X81021795Y-91329961D02*
X81176614Y-90749390D01*
X81176614Y-90749390D02*
X81331433Y-91329961D01*
X81331433Y-91329961D02*
X81524957Y-90517161D01*
X81950709Y-91329961D02*
X81873299Y-91291257D01*
X81873299Y-91291257D02*
X81834594Y-91252552D01*
X81834594Y-91252552D02*
X81795890Y-91175142D01*
X81795890Y-91175142D02*
X81795890Y-90942914D01*
X81795890Y-90942914D02*
X81834594Y-90865504D01*
X81834594Y-90865504D02*
X81873299Y-90826799D01*
X81873299Y-90826799D02*
X81950709Y-90788095D01*
X81950709Y-90788095D02*
X82066823Y-90788095D01*
X82066823Y-90788095D02*
X82144232Y-90826799D01*
X82144232Y-90826799D02*
X82182937Y-90865504D01*
X82182937Y-90865504D02*
X82221642Y-90942914D01*
X82221642Y-90942914D02*
X82221642Y-91175142D01*
X82221642Y-91175142D02*
X82182937Y-91252552D01*
X82182937Y-91252552D02*
X82144232Y-91291257D01*
X82144232Y-91291257D02*
X82066823Y-91329961D01*
X82066823Y-91329961D02*
X81950709Y-91329961D01*
X82569984Y-91329961D02*
X82569984Y-90788095D01*
X82569984Y-90942914D02*
X82608689Y-90865504D01*
X82608689Y-90865504D02*
X82647394Y-90826799D01*
X82647394Y-90826799D02*
X82724803Y-90788095D01*
X82724803Y-90788095D02*
X82802213Y-90788095D01*
X83189261Y-91329961D02*
X83111851Y-91291257D01*
X83111851Y-91291257D02*
X83073146Y-91213847D01*
X83073146Y-91213847D02*
X83073146Y-90517161D01*
X83847241Y-91329961D02*
X83847241Y-90517161D01*
X83847241Y-91291257D02*
X83769832Y-91329961D01*
X83769832Y-91329961D02*
X83615013Y-91329961D01*
X83615013Y-91329961D02*
X83537603Y-91291257D01*
X83537603Y-91291257D02*
X83498898Y-91252552D01*
X83498898Y-91252552D02*
X83460194Y-91175142D01*
X83460194Y-91175142D02*
X83460194Y-90942914D01*
X83460194Y-90942914D02*
X83498898Y-90865504D01*
X83498898Y-90865504D02*
X83537603Y-90826799D01*
X83537603Y-90826799D02*
X83615013Y-90788095D01*
X83615013Y-90788095D02*
X83769832Y-90788095D01*
X83769832Y-90788095D02*
X83847241Y-90826799D01*
X71447207Y-93444209D02*
X71718141Y-93444209D01*
X71834255Y-93869961D02*
X71447207Y-93869961D01*
X71447207Y-93869961D02*
X71447207Y-93057161D01*
X71447207Y-93057161D02*
X71834255Y-93057161D01*
X72182597Y-93869961D02*
X72182597Y-93057161D01*
X72182597Y-93057161D02*
X72376121Y-93057161D01*
X72376121Y-93057161D02*
X72492235Y-93095866D01*
X72492235Y-93095866D02*
X72569645Y-93173276D01*
X72569645Y-93173276D02*
X72608350Y-93250685D01*
X72608350Y-93250685D02*
X72647054Y-93405504D01*
X72647054Y-93405504D02*
X72647054Y-93521618D01*
X72647054Y-93521618D02*
X72608350Y-93676437D01*
X72608350Y-93676437D02*
X72569645Y-93753847D01*
X72569645Y-93753847D02*
X72492235Y-93831257D01*
X72492235Y-93831257D02*
X72376121Y-93869961D01*
X72376121Y-93869961D02*
X72182597Y-93869961D01*
X72995397Y-93444209D02*
X73266331Y-93444209D01*
X73382445Y-93869961D02*
X72995397Y-93869961D01*
X72995397Y-93869961D02*
X72995397Y-93057161D01*
X72995397Y-93057161D02*
X73382445Y-93057161D01*
X73692083Y-93831257D02*
X73808197Y-93869961D01*
X73808197Y-93869961D02*
X74001721Y-93869961D01*
X74001721Y-93869961D02*
X74079130Y-93831257D01*
X74079130Y-93831257D02*
X74117835Y-93792552D01*
X74117835Y-93792552D02*
X74156540Y-93715142D01*
X74156540Y-93715142D02*
X74156540Y-93637733D01*
X74156540Y-93637733D02*
X74117835Y-93560323D01*
X74117835Y-93560323D02*
X74079130Y-93521618D01*
X74079130Y-93521618D02*
X74001721Y-93482914D01*
X74001721Y-93482914D02*
X73846902Y-93444209D01*
X73846902Y-93444209D02*
X73769492Y-93405504D01*
X73769492Y-93405504D02*
X73730787Y-93366799D01*
X73730787Y-93366799D02*
X73692083Y-93289390D01*
X73692083Y-93289390D02*
X73692083Y-93211980D01*
X73692083Y-93211980D02*
X73730787Y-93134571D01*
X73730787Y-93134571D02*
X73769492Y-93095866D01*
X73769492Y-93095866D02*
X73846902Y-93057161D01*
X73846902Y-93057161D02*
X74040425Y-93057161D01*
X74040425Y-93057161D02*
X74156540Y-93095866D01*
X75046749Y-93057161D02*
X75549911Y-93057161D01*
X75549911Y-93057161D02*
X75278977Y-93366799D01*
X75278977Y-93366799D02*
X75395092Y-93366799D01*
X75395092Y-93366799D02*
X75472501Y-93405504D01*
X75472501Y-93405504D02*
X75511206Y-93444209D01*
X75511206Y-93444209D02*
X75549911Y-93521618D01*
X75549911Y-93521618D02*
X75549911Y-93715142D01*
X75549911Y-93715142D02*
X75511206Y-93792552D01*
X75511206Y-93792552D02*
X75472501Y-93831257D01*
X75472501Y-93831257D02*
X75395092Y-93869961D01*
X75395092Y-93869961D02*
X75162863Y-93869961D01*
X75162863Y-93869961D02*
X75085454Y-93831257D01*
X75085454Y-93831257D02*
X75046749Y-93792552D01*
X76053072Y-93057161D02*
X76130482Y-93057161D01*
X76130482Y-93057161D02*
X76207891Y-93095866D01*
X76207891Y-93095866D02*
X76246596Y-93134571D01*
X76246596Y-93134571D02*
X76285301Y-93211980D01*
X76285301Y-93211980D02*
X76324006Y-93366799D01*
X76324006Y-93366799D02*
X76324006Y-93560323D01*
X76324006Y-93560323D02*
X76285301Y-93715142D01*
X76285301Y-93715142D02*
X76246596Y-93792552D01*
X76246596Y-93792552D02*
X76207891Y-93831257D01*
X76207891Y-93831257D02*
X76130482Y-93869961D01*
X76130482Y-93869961D02*
X76053072Y-93869961D01*
X76053072Y-93869961D02*
X75975663Y-93831257D01*
X75975663Y-93831257D02*
X75936958Y-93792552D01*
X75936958Y-93792552D02*
X75898253Y-93715142D01*
X75898253Y-93715142D02*
X75859549Y-93560323D01*
X75859549Y-93560323D02*
X75859549Y-93366799D01*
X75859549Y-93366799D02*
X75898253Y-93211980D01*
X75898253Y-93211980D02*
X75936958Y-93134571D01*
X75936958Y-93134571D02*
X75975663Y-93095866D01*
X75975663Y-93095866D02*
X76053072Y-93057161D01*
X77098101Y-93869961D02*
X76633644Y-93869961D01*
X76865872Y-93869961D02*
X76865872Y-93057161D01*
X76865872Y-93057161D02*
X76788463Y-93173276D01*
X76788463Y-93173276D02*
X76711053Y-93250685D01*
X76711053Y-93250685D02*
X76633644Y-93289390D01*
X73181664Y-96409961D02*
X72910731Y-96022914D01*
X72717207Y-96409961D02*
X72717207Y-95597161D01*
X72717207Y-95597161D02*
X73026845Y-95597161D01*
X73026845Y-95597161D02*
X73104255Y-95635866D01*
X73104255Y-95635866D02*
X73142960Y-95674571D01*
X73142960Y-95674571D02*
X73181664Y-95751980D01*
X73181664Y-95751980D02*
X73181664Y-95868095D01*
X73181664Y-95868095D02*
X73142960Y-95945504D01*
X73142960Y-95945504D02*
X73104255Y-95984209D01*
X73104255Y-95984209D02*
X73026845Y-96022914D01*
X73026845Y-96022914D02*
X72717207Y-96022914D01*
X73530007Y-95984209D02*
X73800941Y-95984209D01*
X73917055Y-96409961D02*
X73530007Y-96409961D01*
X73530007Y-96409961D02*
X73530007Y-95597161D01*
X73530007Y-95597161D02*
X73917055Y-95597161D01*
X74149283Y-95597161D02*
X74420216Y-96409961D01*
X74420216Y-96409961D02*
X74691150Y-95597161D01*
X76007112Y-96409961D02*
X75542655Y-96409961D01*
X75774883Y-96409961D02*
X75774883Y-95597161D01*
X75774883Y-95597161D02*
X75697474Y-95713276D01*
X75697474Y-95713276D02*
X75620064Y-95790685D01*
X75620064Y-95790685D02*
X75542655Y-95829390D01*
X76316750Y-96177733D02*
X76703797Y-96177733D01*
X76239340Y-96409961D02*
X76510273Y-95597161D01*
X76510273Y-95597161D02*
X76781207Y-96409961D01*
X74451664Y-98872552D02*
X74412960Y-98911257D01*
X74412960Y-98911257D02*
X74296845Y-98949961D01*
X74296845Y-98949961D02*
X74219436Y-98949961D01*
X74219436Y-98949961D02*
X74103322Y-98911257D01*
X74103322Y-98911257D02*
X74025912Y-98833847D01*
X74025912Y-98833847D02*
X73987207Y-98756437D01*
X73987207Y-98756437D02*
X73948503Y-98601618D01*
X73948503Y-98601618D02*
X73948503Y-98485504D01*
X73948503Y-98485504D02*
X73987207Y-98330685D01*
X73987207Y-98330685D02*
X74025912Y-98253276D01*
X74025912Y-98253276D02*
X74103322Y-98175866D01*
X74103322Y-98175866D02*
X74219436Y-98137161D01*
X74219436Y-98137161D02*
X74296845Y-98137161D01*
X74296845Y-98137161D02*
X74412960Y-98175866D01*
X74412960Y-98175866D02*
X74451664Y-98214571D01*
X74916122Y-98949961D02*
X74838712Y-98911257D01*
X74838712Y-98911257D02*
X74800007Y-98833847D01*
X74800007Y-98833847D02*
X74800007Y-98137161D01*
X75574102Y-98949961D02*
X75574102Y-98524209D01*
X75574102Y-98524209D02*
X75535397Y-98446799D01*
X75535397Y-98446799D02*
X75457988Y-98408095D01*
X75457988Y-98408095D02*
X75303169Y-98408095D01*
X75303169Y-98408095D02*
X75225759Y-98446799D01*
X75574102Y-98911257D02*
X75496693Y-98949961D01*
X75496693Y-98949961D02*
X75303169Y-98949961D01*
X75303169Y-98949961D02*
X75225759Y-98911257D01*
X75225759Y-98911257D02*
X75187055Y-98833847D01*
X75187055Y-98833847D02*
X75187055Y-98756437D01*
X75187055Y-98756437D02*
X75225759Y-98679028D01*
X75225759Y-98679028D02*
X75303169Y-98640323D01*
X75303169Y-98640323D02*
X75496693Y-98640323D01*
X75496693Y-98640323D02*
X75574102Y-98601618D01*
X75883740Y-98408095D02*
X76077264Y-98949961D01*
X76270787Y-98408095D02*
X76077264Y-98949961D01*
X76077264Y-98949961D02*
X75999854Y-99143485D01*
X75999854Y-99143485D02*
X75961149Y-99182190D01*
X75961149Y-99182190D02*
X75883740Y-99220895D01*
X77625454Y-98175866D02*
X77548044Y-98137161D01*
X77548044Y-98137161D02*
X77431930Y-98137161D01*
X77431930Y-98137161D02*
X77315816Y-98175866D01*
X77315816Y-98175866D02*
X77238406Y-98253276D01*
X77238406Y-98253276D02*
X77199701Y-98330685D01*
X77199701Y-98330685D02*
X77160997Y-98485504D01*
X77160997Y-98485504D02*
X77160997Y-98601618D01*
X77160997Y-98601618D02*
X77199701Y-98756437D01*
X77199701Y-98756437D02*
X77238406Y-98833847D01*
X77238406Y-98833847D02*
X77315816Y-98911257D01*
X77315816Y-98911257D02*
X77431930Y-98949961D01*
X77431930Y-98949961D02*
X77509339Y-98949961D01*
X77509339Y-98949961D02*
X77625454Y-98911257D01*
X77625454Y-98911257D02*
X77664158Y-98872552D01*
X77664158Y-98872552D02*
X77664158Y-98601618D01*
X77664158Y-98601618D02*
X77509339Y-98601618D01*
X78128616Y-98949961D02*
X78051206Y-98911257D01*
X78051206Y-98911257D02*
X78012501Y-98872552D01*
X78012501Y-98872552D02*
X77973797Y-98795142D01*
X77973797Y-98795142D02*
X77973797Y-98562914D01*
X77973797Y-98562914D02*
X78012501Y-98485504D01*
X78012501Y-98485504D02*
X78051206Y-98446799D01*
X78051206Y-98446799D02*
X78128616Y-98408095D01*
X78128616Y-98408095D02*
X78244730Y-98408095D01*
X78244730Y-98408095D02*
X78322139Y-98446799D01*
X78322139Y-98446799D02*
X78360844Y-98485504D01*
X78360844Y-98485504D02*
X78399549Y-98562914D01*
X78399549Y-98562914D02*
X78399549Y-98795142D01*
X78399549Y-98795142D02*
X78360844Y-98872552D01*
X78360844Y-98872552D02*
X78322139Y-98911257D01*
X78322139Y-98911257D02*
X78244730Y-98949961D01*
X78244730Y-98949961D02*
X78128616Y-98949961D01*
X78864006Y-98949961D02*
X78786596Y-98911257D01*
X78786596Y-98911257D02*
X78747891Y-98833847D01*
X78747891Y-98833847D02*
X78747891Y-98137161D01*
X79521986Y-98949961D02*
X79521986Y-98137161D01*
X79521986Y-98911257D02*
X79444577Y-98949961D01*
X79444577Y-98949961D02*
X79289758Y-98949961D01*
X79289758Y-98949961D02*
X79212348Y-98911257D01*
X79212348Y-98911257D02*
X79173643Y-98872552D01*
X79173643Y-98872552D02*
X79134939Y-98795142D01*
X79134939Y-98795142D02*
X79134939Y-98562914D01*
X79134939Y-98562914D02*
X79173643Y-98485504D01*
X79173643Y-98485504D02*
X79212348Y-98446799D01*
X79212348Y-98446799D02*
X79289758Y-98408095D01*
X79289758Y-98408095D02*
X79444577Y-98408095D01*
X79444577Y-98408095D02*
X79521986Y-98446799D01*
X79870329Y-98911257D02*
X79947738Y-98949961D01*
X79947738Y-98949961D02*
X80102557Y-98949961D01*
X80102557Y-98949961D02*
X80179967Y-98911257D01*
X80179967Y-98911257D02*
X80218671Y-98833847D01*
X80218671Y-98833847D02*
X80218671Y-98795142D01*
X80218671Y-98795142D02*
X80179967Y-98717733D01*
X80179967Y-98717733D02*
X80102557Y-98679028D01*
X80102557Y-98679028D02*
X79986443Y-98679028D01*
X79986443Y-98679028D02*
X79909033Y-98640323D01*
X79909033Y-98640323D02*
X79870329Y-98562914D01*
X79870329Y-98562914D02*
X79870329Y-98524209D01*
X79870329Y-98524209D02*
X79909033Y-98446799D01*
X79909033Y-98446799D02*
X79986443Y-98408095D01*
X79986443Y-98408095D02*
X80102557Y-98408095D01*
X80102557Y-98408095D02*
X80179967Y-98446799D01*
X80567014Y-98949961D02*
X80567014Y-98408095D01*
X80567014Y-98485504D02*
X80605719Y-98446799D01*
X80605719Y-98446799D02*
X80683129Y-98408095D01*
X80683129Y-98408095D02*
X80799243Y-98408095D01*
X80799243Y-98408095D02*
X80876652Y-98446799D01*
X80876652Y-98446799D02*
X80915357Y-98524209D01*
X80915357Y-98524209D02*
X80915357Y-98949961D01*
X80915357Y-98524209D02*
X80954062Y-98446799D01*
X80954062Y-98446799D02*
X81031471Y-98408095D01*
X81031471Y-98408095D02*
X81147586Y-98408095D01*
X81147586Y-98408095D02*
X81224995Y-98446799D01*
X81224995Y-98446799D02*
X81263700Y-98524209D01*
X81263700Y-98524209D02*
X81263700Y-98949961D01*
X81650747Y-98949961D02*
X81650747Y-98408095D01*
X81650747Y-98137161D02*
X81612043Y-98175866D01*
X81612043Y-98175866D02*
X81650747Y-98214571D01*
X81650747Y-98214571D02*
X81689452Y-98175866D01*
X81689452Y-98175866D02*
X81650747Y-98137161D01*
X81650747Y-98137161D02*
X81650747Y-98214571D01*
X81921681Y-98408095D02*
X82231319Y-98408095D01*
X82037795Y-98137161D02*
X82037795Y-98833847D01*
X82037795Y-98833847D02*
X82076500Y-98911257D01*
X82076500Y-98911257D02*
X82153910Y-98949961D01*
X82153910Y-98949961D02*
X82231319Y-98949961D01*
X82502252Y-98949961D02*
X82502252Y-98137161D01*
X82850595Y-98949961D02*
X82850595Y-98524209D01*
X82850595Y-98524209D02*
X82811890Y-98446799D01*
X82811890Y-98446799D02*
X82734481Y-98408095D01*
X82734481Y-98408095D02*
X82618367Y-98408095D01*
X82618367Y-98408095D02*
X82540957Y-98446799D01*
X82540957Y-98446799D02*
X82502252Y-98485504D01*
D12*
X26881914Y-95768819D02*
X26881914Y-96483104D01*
X26881914Y-96483104D02*
X26834295Y-96625961D01*
X26834295Y-96625961D02*
X26739057Y-96721200D01*
X26739057Y-96721200D02*
X26596200Y-96768819D01*
X26596200Y-96768819D02*
X26500962Y-96768819D01*
X27881914Y-96768819D02*
X27310486Y-96768819D01*
X27596200Y-96768819D02*
X27596200Y-95768819D01*
X27596200Y-95768819D02*
X27500962Y-95911676D01*
X27500962Y-95911676D02*
X27405724Y-96006914D01*
X27405724Y-96006914D02*
X27310486Y-96054533D01*
D10*
X262756715Y-75844075D02*
X263027648Y-76231122D01*
X263221172Y-75844075D02*
X263221172Y-76656875D01*
X263221172Y-76656875D02*
X262911534Y-76656875D01*
X262911534Y-76656875D02*
X262834124Y-76618170D01*
X262834124Y-76618170D02*
X262795419Y-76579465D01*
X262795419Y-76579465D02*
X262756715Y-76502056D01*
X262756715Y-76502056D02*
X262756715Y-76385941D01*
X262756715Y-76385941D02*
X262795419Y-76308532D01*
X262795419Y-76308532D02*
X262834124Y-76269827D01*
X262834124Y-76269827D02*
X262911534Y-76231122D01*
X262911534Y-76231122D02*
X263221172Y-76231122D01*
X262060029Y-76656875D02*
X262214848Y-76656875D01*
X262214848Y-76656875D02*
X262292257Y-76618170D01*
X262292257Y-76618170D02*
X262330962Y-76579465D01*
X262330962Y-76579465D02*
X262408372Y-76463351D01*
X262408372Y-76463351D02*
X262447076Y-76308532D01*
X262447076Y-76308532D02*
X262447076Y-75998894D01*
X262447076Y-75998894D02*
X262408372Y-75921484D01*
X262408372Y-75921484D02*
X262369667Y-75882780D01*
X262369667Y-75882780D02*
X262292257Y-75844075D01*
X262292257Y-75844075D02*
X262137438Y-75844075D01*
X262137438Y-75844075D02*
X262060029Y-75882780D01*
X262060029Y-75882780D02*
X262021324Y-75921484D01*
X262021324Y-75921484D02*
X261982619Y-75998894D01*
X261982619Y-75998894D02*
X261982619Y-76192418D01*
X261982619Y-76192418D02*
X262021324Y-76269827D01*
X262021324Y-76269827D02*
X262060029Y-76308532D01*
X262060029Y-76308532D02*
X262137438Y-76347237D01*
X262137438Y-76347237D02*
X262292257Y-76347237D01*
X262292257Y-76347237D02*
X262369667Y-76308532D01*
X262369667Y-76308532D02*
X262408372Y-76269827D01*
X262408372Y-76269827D02*
X262447076Y-76192418D01*
D13*
X211586899Y-100802333D02*
X210740232Y-100802333D01*
X210861184Y-100802333D02*
X210800708Y-100741856D01*
X210800708Y-100741856D02*
X210740232Y-100620904D01*
X210740232Y-100620904D02*
X210740232Y-100439475D01*
X210740232Y-100439475D02*
X210800708Y-100318523D01*
X210800708Y-100318523D02*
X210921661Y-100258047D01*
X210921661Y-100258047D02*
X211586899Y-100258047D01*
X210921661Y-100258047D02*
X210800708Y-100197571D01*
X210800708Y-100197571D02*
X210740232Y-100076618D01*
X210740232Y-100076618D02*
X210740232Y-99895190D01*
X210740232Y-99895190D02*
X210800708Y-99774237D01*
X210800708Y-99774237D02*
X210921661Y-99713761D01*
X210921661Y-99713761D02*
X211586899Y-99713761D01*
X211586899Y-99109000D02*
X210740232Y-99109000D01*
X210316899Y-99109000D02*
X210377375Y-99169476D01*
X210377375Y-99169476D02*
X210437851Y-99109000D01*
X210437851Y-99109000D02*
X210377375Y-99048523D01*
X210377375Y-99048523D02*
X210316899Y-99109000D01*
X210316899Y-99109000D02*
X210437851Y-99109000D01*
X211526423Y-97959952D02*
X211586899Y-98080904D01*
X211586899Y-98080904D02*
X211586899Y-98322809D01*
X211586899Y-98322809D02*
X211526423Y-98443761D01*
X211526423Y-98443761D02*
X211465946Y-98504238D01*
X211465946Y-98504238D02*
X211344994Y-98564714D01*
X211344994Y-98564714D02*
X210982137Y-98564714D01*
X210982137Y-98564714D02*
X210861184Y-98504238D01*
X210861184Y-98504238D02*
X210800708Y-98443761D01*
X210800708Y-98443761D02*
X210740232Y-98322809D01*
X210740232Y-98322809D02*
X210740232Y-98080904D01*
X210740232Y-98080904D02*
X210800708Y-97959952D01*
X211586899Y-97415667D02*
X210740232Y-97415667D01*
X210982137Y-97415667D02*
X210861184Y-97355190D01*
X210861184Y-97355190D02*
X210800708Y-97294714D01*
X210800708Y-97294714D02*
X210740232Y-97173762D01*
X210740232Y-97173762D02*
X210740232Y-97052809D01*
X211586899Y-96448048D02*
X211526423Y-96569000D01*
X211526423Y-96569000D02*
X211465946Y-96629477D01*
X211465946Y-96629477D02*
X211344994Y-96689953D01*
X211344994Y-96689953D02*
X210982137Y-96689953D01*
X210982137Y-96689953D02*
X210861184Y-96629477D01*
X210861184Y-96629477D02*
X210800708Y-96569000D01*
X210800708Y-96569000D02*
X210740232Y-96448048D01*
X210740232Y-96448048D02*
X210740232Y-96266619D01*
X210740232Y-96266619D02*
X210800708Y-96145667D01*
X210800708Y-96145667D02*
X210861184Y-96085191D01*
X210861184Y-96085191D02*
X210982137Y-96024715D01*
X210982137Y-96024715D02*
X211344994Y-96024715D01*
X211344994Y-96024715D02*
X211465946Y-96085191D01*
X211465946Y-96085191D02*
X211526423Y-96145667D01*
X211526423Y-96145667D02*
X211586899Y-96266619D01*
X211586899Y-96266619D02*
X211586899Y-96448048D01*
X211526423Y-95540905D02*
X211586899Y-95359476D01*
X211586899Y-95359476D02*
X211586899Y-95057095D01*
X211586899Y-95057095D02*
X211526423Y-94936143D01*
X211526423Y-94936143D02*
X211465946Y-94875667D01*
X211465946Y-94875667D02*
X211344994Y-94815190D01*
X211344994Y-94815190D02*
X211224042Y-94815190D01*
X211224042Y-94815190D02*
X211103089Y-94875667D01*
X211103089Y-94875667D02*
X211042613Y-94936143D01*
X211042613Y-94936143D02*
X210982137Y-95057095D01*
X210982137Y-95057095D02*
X210921661Y-95299000D01*
X210921661Y-95299000D02*
X210861184Y-95419952D01*
X210861184Y-95419952D02*
X210800708Y-95480429D01*
X210800708Y-95480429D02*
X210679756Y-95540905D01*
X210679756Y-95540905D02*
X210558803Y-95540905D01*
X210558803Y-95540905D02*
X210437851Y-95480429D01*
X210437851Y-95480429D02*
X210377375Y-95419952D01*
X210377375Y-95419952D02*
X210316899Y-95299000D01*
X210316899Y-95299000D02*
X210316899Y-94996619D01*
X210316899Y-94996619D02*
X210377375Y-94815190D01*
X211586899Y-94270905D02*
X210316899Y-94270905D01*
X210316899Y-94270905D02*
X210316899Y-93968524D01*
X210316899Y-93968524D02*
X210377375Y-93787095D01*
X210377375Y-93787095D02*
X210498327Y-93666143D01*
X210498327Y-93666143D02*
X210619280Y-93605666D01*
X210619280Y-93605666D02*
X210861184Y-93545190D01*
X210861184Y-93545190D02*
X211042613Y-93545190D01*
X211042613Y-93545190D02*
X211284518Y-93605666D01*
X211284518Y-93605666D02*
X211405470Y-93666143D01*
X211405470Y-93666143D02*
X211526423Y-93787095D01*
X211526423Y-93787095D02*
X211586899Y-93968524D01*
X211586899Y-93968524D02*
X211586899Y-94270905D01*
D14*
X226650438Y-96289199D02*
X226650438Y-94511199D01*
X226650438Y-94511199D02*
X227327771Y-94511199D01*
X227327771Y-94511199D02*
X227497105Y-94595866D01*
X227497105Y-94595866D02*
X227581771Y-94680533D01*
X227581771Y-94680533D02*
X227666438Y-94849866D01*
X227666438Y-94849866D02*
X227666438Y-95103866D01*
X227666438Y-95103866D02*
X227581771Y-95273199D01*
X227581771Y-95273199D02*
X227497105Y-95357866D01*
X227497105Y-95357866D02*
X227327771Y-95442533D01*
X227327771Y-95442533D02*
X226650438Y-95442533D01*
X228682438Y-96289199D02*
X228513105Y-96204533D01*
X228513105Y-96204533D02*
X228428438Y-96119866D01*
X228428438Y-96119866D02*
X228343771Y-95950533D01*
X228343771Y-95950533D02*
X228343771Y-95442533D01*
X228343771Y-95442533D02*
X228428438Y-95273199D01*
X228428438Y-95273199D02*
X228513105Y-95188533D01*
X228513105Y-95188533D02*
X228682438Y-95103866D01*
X228682438Y-95103866D02*
X228936438Y-95103866D01*
X228936438Y-95103866D02*
X229105771Y-95188533D01*
X229105771Y-95188533D02*
X229190438Y-95273199D01*
X229190438Y-95273199D02*
X229275105Y-95442533D01*
X229275105Y-95442533D02*
X229275105Y-95950533D01*
X229275105Y-95950533D02*
X229190438Y-96119866D01*
X229190438Y-96119866D02*
X229105771Y-96204533D01*
X229105771Y-96204533D02*
X228936438Y-96289199D01*
X228936438Y-96289199D02*
X228682438Y-96289199D01*
X230799105Y-96204533D02*
X230629772Y-96289199D01*
X230629772Y-96289199D02*
X230291105Y-96289199D01*
X230291105Y-96289199D02*
X230121772Y-96204533D01*
X230121772Y-96204533D02*
X230037105Y-96119866D01*
X230037105Y-96119866D02*
X229952438Y-95950533D01*
X229952438Y-95950533D02*
X229952438Y-95442533D01*
X229952438Y-95442533D02*
X230037105Y-95273199D01*
X230037105Y-95273199D02*
X230121772Y-95188533D01*
X230121772Y-95188533D02*
X230291105Y-95103866D01*
X230291105Y-95103866D02*
X230629772Y-95103866D01*
X230629772Y-95103866D02*
X230799105Y-95188533D01*
X231561105Y-96289199D02*
X231561105Y-94511199D01*
X231730438Y-95611866D02*
X232238438Y-96289199D01*
X232238438Y-95103866D02*
X231561105Y-95781199D01*
X233677771Y-96204533D02*
X233508438Y-96289199D01*
X233508438Y-96289199D02*
X233169771Y-96289199D01*
X233169771Y-96289199D02*
X233000438Y-96204533D01*
X233000438Y-96204533D02*
X232915771Y-96035199D01*
X232915771Y-96035199D02*
X232915771Y-95357866D01*
X232915771Y-95357866D02*
X233000438Y-95188533D01*
X233000438Y-95188533D02*
X233169771Y-95103866D01*
X233169771Y-95103866D02*
X233508438Y-95103866D01*
X233508438Y-95103866D02*
X233677771Y-95188533D01*
X233677771Y-95188533D02*
X233762438Y-95357866D01*
X233762438Y-95357866D02*
X233762438Y-95527199D01*
X233762438Y-95527199D02*
X232915771Y-95696533D01*
X234270438Y-95103866D02*
X234947771Y-95103866D01*
X234524438Y-94511199D02*
X234524438Y-96035199D01*
X234524438Y-96035199D02*
X234609105Y-96204533D01*
X234609105Y-96204533D02*
X234778438Y-96289199D01*
X234778438Y-96289199D02*
X234947771Y-96289199D01*
X236133105Y-95357866D02*
X236387105Y-95442533D01*
X236387105Y-95442533D02*
X236471771Y-95527199D01*
X236471771Y-95527199D02*
X236556438Y-95696533D01*
X236556438Y-95696533D02*
X236556438Y-95950533D01*
X236556438Y-95950533D02*
X236471771Y-96119866D01*
X236471771Y-96119866D02*
X236387105Y-96204533D01*
X236387105Y-96204533D02*
X236217771Y-96289199D01*
X236217771Y-96289199D02*
X235540438Y-96289199D01*
X235540438Y-96289199D02*
X235540438Y-94511199D01*
X235540438Y-94511199D02*
X236133105Y-94511199D01*
X236133105Y-94511199D02*
X236302438Y-94595866D01*
X236302438Y-94595866D02*
X236387105Y-94680533D01*
X236387105Y-94680533D02*
X236471771Y-94849866D01*
X236471771Y-94849866D02*
X236471771Y-95019199D01*
X236471771Y-95019199D02*
X236387105Y-95188533D01*
X236387105Y-95188533D02*
X236302438Y-95273199D01*
X236302438Y-95273199D02*
X236133105Y-95357866D01*
X236133105Y-95357866D02*
X235540438Y-95357866D01*
X237995771Y-96204533D02*
X237826438Y-96289199D01*
X237826438Y-96289199D02*
X237487771Y-96289199D01*
X237487771Y-96289199D02*
X237318438Y-96204533D01*
X237318438Y-96204533D02*
X237233771Y-96035199D01*
X237233771Y-96035199D02*
X237233771Y-95357866D01*
X237233771Y-95357866D02*
X237318438Y-95188533D01*
X237318438Y-95188533D02*
X237487771Y-95103866D01*
X237487771Y-95103866D02*
X237826438Y-95103866D01*
X237826438Y-95103866D02*
X237995771Y-95188533D01*
X237995771Y-95188533D02*
X238080438Y-95357866D01*
X238080438Y-95357866D02*
X238080438Y-95527199D01*
X238080438Y-95527199D02*
X237233771Y-95696533D01*
X239604438Y-96289199D02*
X239604438Y-95357866D01*
X239604438Y-95357866D02*
X239519771Y-95188533D01*
X239519771Y-95188533D02*
X239350438Y-95103866D01*
X239350438Y-95103866D02*
X239011771Y-95103866D01*
X239011771Y-95103866D02*
X238842438Y-95188533D01*
X239604438Y-96204533D02*
X239435105Y-96289199D01*
X239435105Y-96289199D02*
X239011771Y-96289199D01*
X239011771Y-96289199D02*
X238842438Y-96204533D01*
X238842438Y-96204533D02*
X238757771Y-96035199D01*
X238757771Y-96035199D02*
X238757771Y-95865866D01*
X238757771Y-95865866D02*
X238842438Y-95696533D01*
X238842438Y-95696533D02*
X239011771Y-95611866D01*
X239011771Y-95611866D02*
X239435105Y-95611866D01*
X239435105Y-95611866D02*
X239604438Y-95527199D01*
X241213105Y-95103866D02*
X241213105Y-96543199D01*
X241213105Y-96543199D02*
X241128438Y-96712533D01*
X241128438Y-96712533D02*
X241043772Y-96797199D01*
X241043772Y-96797199D02*
X240874438Y-96881866D01*
X240874438Y-96881866D02*
X240620438Y-96881866D01*
X240620438Y-96881866D02*
X240451105Y-96797199D01*
X241213105Y-96204533D02*
X241043772Y-96289199D01*
X241043772Y-96289199D02*
X240705105Y-96289199D01*
X240705105Y-96289199D02*
X240535772Y-96204533D01*
X240535772Y-96204533D02*
X240451105Y-96119866D01*
X240451105Y-96119866D02*
X240366438Y-95950533D01*
X240366438Y-95950533D02*
X240366438Y-95442533D01*
X240366438Y-95442533D02*
X240451105Y-95273199D01*
X240451105Y-95273199D02*
X240535772Y-95188533D01*
X240535772Y-95188533D02*
X240705105Y-95103866D01*
X240705105Y-95103866D02*
X241043772Y-95103866D01*
X241043772Y-95103866D02*
X241213105Y-95188533D01*
X242313772Y-96289199D02*
X242144439Y-96204533D01*
X242144439Y-96204533D02*
X242059772Y-96035199D01*
X242059772Y-96035199D02*
X242059772Y-94511199D01*
X243668438Y-96204533D02*
X243499105Y-96289199D01*
X243499105Y-96289199D02*
X243160438Y-96289199D01*
X243160438Y-96289199D02*
X242991105Y-96204533D01*
X242991105Y-96204533D02*
X242906438Y-96035199D01*
X242906438Y-96035199D02*
X242906438Y-95357866D01*
X242906438Y-95357866D02*
X242991105Y-95188533D01*
X242991105Y-95188533D02*
X243160438Y-95103866D01*
X243160438Y-95103866D02*
X243499105Y-95103866D01*
X243499105Y-95103866D02*
X243668438Y-95188533D01*
X243668438Y-95188533D02*
X243753105Y-95357866D01*
X243753105Y-95357866D02*
X243753105Y-95527199D01*
X243753105Y-95527199D02*
X242906438Y-95696533D01*
D15*
X258302884Y-87285761D02*
X258302884Y-85832881D01*
X258302884Y-85832881D02*
X258856362Y-85832881D01*
X258856362Y-85832881D02*
X258994732Y-85902066D01*
X258994732Y-85902066D02*
X259063917Y-85971251D01*
X259063917Y-85971251D02*
X259133101Y-86109620D01*
X259133101Y-86109620D02*
X259133101Y-86317175D01*
X259133101Y-86317175D02*
X259063917Y-86455544D01*
X259063917Y-86455544D02*
X258994732Y-86524729D01*
X258994732Y-86524729D02*
X258856362Y-86593914D01*
X258856362Y-86593914D02*
X258302884Y-86593914D01*
X260516797Y-87285761D02*
X259686580Y-87285761D01*
X260101688Y-87285761D02*
X260101688Y-85832881D01*
X260101688Y-85832881D02*
X259963319Y-86040436D01*
X259963319Y-86040436D02*
X259824949Y-86178805D01*
X259824949Y-86178805D02*
X259686580Y-86247990D01*
X258302884Y-110145761D02*
X258302884Y-108692881D01*
X258302884Y-108692881D02*
X258856362Y-108692881D01*
X258856362Y-108692881D02*
X258994732Y-108762066D01*
X258994732Y-108762066D02*
X259063917Y-108831251D01*
X259063917Y-108831251D02*
X259133101Y-108969620D01*
X259133101Y-108969620D02*
X259133101Y-109177175D01*
X259133101Y-109177175D02*
X259063917Y-109315544D01*
X259063917Y-109315544D02*
X258994732Y-109384729D01*
X258994732Y-109384729D02*
X258856362Y-109453914D01*
X258856362Y-109453914D02*
X258302884Y-109453914D01*
X259686580Y-108831251D02*
X259755764Y-108762066D01*
X259755764Y-108762066D02*
X259894134Y-108692881D01*
X259894134Y-108692881D02*
X260240058Y-108692881D01*
X260240058Y-108692881D02*
X260378427Y-108762066D01*
X260378427Y-108762066D02*
X260447612Y-108831251D01*
X260447612Y-108831251D02*
X260516797Y-108969620D01*
X260516797Y-108969620D02*
X260516797Y-109107990D01*
X260516797Y-109107990D02*
X260447612Y-109315544D01*
X260447612Y-109315544D02*
X259617395Y-110145761D01*
X259617395Y-110145761D02*
X260516797Y-110145761D01*
D13*
X261116899Y-101467571D02*
X260270232Y-101467571D01*
X260391184Y-101467571D02*
X260330708Y-101407094D01*
X260330708Y-101407094D02*
X260270232Y-101286142D01*
X260270232Y-101286142D02*
X260270232Y-101104713D01*
X260270232Y-101104713D02*
X260330708Y-100983761D01*
X260330708Y-100983761D02*
X260451661Y-100923285D01*
X260451661Y-100923285D02*
X261116899Y-100923285D01*
X260451661Y-100923285D02*
X260330708Y-100862809D01*
X260330708Y-100862809D02*
X260270232Y-100741856D01*
X260270232Y-100741856D02*
X260270232Y-100560428D01*
X260270232Y-100560428D02*
X260330708Y-100439475D01*
X260330708Y-100439475D02*
X260451661Y-100378999D01*
X260451661Y-100378999D02*
X261116899Y-100378999D01*
X261116899Y-99774238D02*
X260270232Y-99774238D01*
X259846899Y-99774238D02*
X259907375Y-99834714D01*
X259907375Y-99834714D02*
X259967851Y-99774238D01*
X259967851Y-99774238D02*
X259907375Y-99713761D01*
X259907375Y-99713761D02*
X259846899Y-99774238D01*
X259846899Y-99774238D02*
X259967851Y-99774238D01*
X261056423Y-98625190D02*
X261116899Y-98746142D01*
X261116899Y-98746142D02*
X261116899Y-98988047D01*
X261116899Y-98988047D02*
X261056423Y-99108999D01*
X261056423Y-99108999D02*
X260995946Y-99169476D01*
X260995946Y-99169476D02*
X260874994Y-99229952D01*
X260874994Y-99229952D02*
X260512137Y-99229952D01*
X260512137Y-99229952D02*
X260391184Y-99169476D01*
X260391184Y-99169476D02*
X260330708Y-99108999D01*
X260330708Y-99108999D02*
X260270232Y-98988047D01*
X260270232Y-98988047D02*
X260270232Y-98746142D01*
X260270232Y-98746142D02*
X260330708Y-98625190D01*
X261116899Y-98080905D02*
X260270232Y-98080905D01*
X260512137Y-98080905D02*
X260391184Y-98020428D01*
X260391184Y-98020428D02*
X260330708Y-97959952D01*
X260330708Y-97959952D02*
X260270232Y-97839000D01*
X260270232Y-97839000D02*
X260270232Y-97718047D01*
X261116899Y-97113286D02*
X261056423Y-97234238D01*
X261056423Y-97234238D02*
X260995946Y-97294715D01*
X260995946Y-97294715D02*
X260874994Y-97355191D01*
X260874994Y-97355191D02*
X260512137Y-97355191D01*
X260512137Y-97355191D02*
X260391184Y-97294715D01*
X260391184Y-97294715D02*
X260330708Y-97234238D01*
X260330708Y-97234238D02*
X260270232Y-97113286D01*
X260270232Y-97113286D02*
X260270232Y-96931857D01*
X260270232Y-96931857D02*
X260330708Y-96810905D01*
X260330708Y-96810905D02*
X260391184Y-96750429D01*
X260391184Y-96750429D02*
X260512137Y-96689953D01*
X260512137Y-96689953D02*
X260874994Y-96689953D01*
X260874994Y-96689953D02*
X260995946Y-96750429D01*
X260995946Y-96750429D02*
X261056423Y-96810905D01*
X261056423Y-96810905D02*
X261116899Y-96931857D01*
X261116899Y-96931857D02*
X261116899Y-97113286D01*
X259846899Y-96145667D02*
X260874994Y-96145667D01*
X260874994Y-96145667D02*
X260995946Y-96085190D01*
X260995946Y-96085190D02*
X261056423Y-96024714D01*
X261056423Y-96024714D02*
X261116899Y-95903762D01*
X261116899Y-95903762D02*
X261116899Y-95661857D01*
X261116899Y-95661857D02*
X261056423Y-95540905D01*
X261056423Y-95540905D02*
X260995946Y-95480428D01*
X260995946Y-95480428D02*
X260874994Y-95419952D01*
X260874994Y-95419952D02*
X259846899Y-95419952D01*
X261056423Y-94875667D02*
X261116899Y-94694238D01*
X261116899Y-94694238D02*
X261116899Y-94391857D01*
X261116899Y-94391857D02*
X261056423Y-94270905D01*
X261056423Y-94270905D02*
X260995946Y-94210429D01*
X260995946Y-94210429D02*
X260874994Y-94149952D01*
X260874994Y-94149952D02*
X260754042Y-94149952D01*
X260754042Y-94149952D02*
X260633089Y-94210429D01*
X260633089Y-94210429D02*
X260572613Y-94270905D01*
X260572613Y-94270905D02*
X260512137Y-94391857D01*
X260512137Y-94391857D02*
X260451661Y-94633762D01*
X260451661Y-94633762D02*
X260391184Y-94754714D01*
X260391184Y-94754714D02*
X260330708Y-94815191D01*
X260330708Y-94815191D02*
X260209756Y-94875667D01*
X260209756Y-94875667D02*
X260088803Y-94875667D01*
X260088803Y-94875667D02*
X259967851Y-94815191D01*
X259967851Y-94815191D02*
X259907375Y-94754714D01*
X259907375Y-94754714D02*
X259846899Y-94633762D01*
X259846899Y-94633762D02*
X259846899Y-94331381D01*
X259846899Y-94331381D02*
X259907375Y-94149952D01*
X260451661Y-93182333D02*
X260512137Y-93000905D01*
X260512137Y-93000905D02*
X260572613Y-92940428D01*
X260572613Y-92940428D02*
X260693565Y-92879952D01*
X260693565Y-92879952D02*
X260874994Y-92879952D01*
X260874994Y-92879952D02*
X260995946Y-92940428D01*
X260995946Y-92940428D02*
X261056423Y-93000905D01*
X261056423Y-93000905D02*
X261116899Y-93121857D01*
X261116899Y-93121857D02*
X261116899Y-93605667D01*
X261116899Y-93605667D02*
X259846899Y-93605667D01*
X259846899Y-93605667D02*
X259846899Y-93182333D01*
X259846899Y-93182333D02*
X259907375Y-93061381D01*
X259907375Y-93061381D02*
X259967851Y-93000905D01*
X259967851Y-93000905D02*
X260088803Y-92940428D01*
X260088803Y-92940428D02*
X260209756Y-92940428D01*
X260209756Y-92940428D02*
X260330708Y-93000905D01*
X260330708Y-93000905D02*
X260391184Y-93061381D01*
X260391184Y-93061381D02*
X260451661Y-93182333D01*
X260451661Y-93182333D02*
X260451661Y-93605667D01*
X259926667Y-114136651D02*
X259503333Y-113531889D01*
X259200952Y-114136651D02*
X259200952Y-112866651D01*
X259200952Y-112866651D02*
X259684762Y-112866651D01*
X259684762Y-112866651D02*
X259805714Y-112927127D01*
X259805714Y-112927127D02*
X259866191Y-112987603D01*
X259866191Y-112987603D02*
X259926667Y-113108555D01*
X259926667Y-113108555D02*
X259926667Y-113289984D01*
X259926667Y-113289984D02*
X259866191Y-113410936D01*
X259866191Y-113410936D02*
X259805714Y-113471413D01*
X259805714Y-113471413D02*
X259684762Y-113531889D01*
X259684762Y-113531889D02*
X259200952Y-113531889D01*
X260470952Y-113471413D02*
X260894286Y-113471413D01*
X261075714Y-114136651D02*
X260470952Y-114136651D01*
X260470952Y-114136651D02*
X260470952Y-112866651D01*
X260470952Y-112866651D02*
X261075714Y-112866651D01*
X262043334Y-113471413D02*
X261620000Y-113471413D01*
X261620000Y-114136651D02*
X261620000Y-112866651D01*
X261620000Y-112866651D02*
X262224762Y-112866651D01*
X262890000Y-112866651D02*
X262890000Y-113169032D01*
X262587619Y-113048079D02*
X262890000Y-113169032D01*
X262890000Y-113169032D02*
X263192381Y-113048079D01*
X262708571Y-113410936D02*
X262890000Y-113169032D01*
X262890000Y-113169032D02*
X263071429Y-113410936D01*
X263857619Y-112866651D02*
X263857619Y-113169032D01*
X263555238Y-113048079D02*
X263857619Y-113169032D01*
X263857619Y-113169032D02*
X264160000Y-113048079D01*
X263676190Y-113410936D02*
X263857619Y-113169032D01*
X263857619Y-113169032D02*
X264039048Y-113410936D01*
D10*
X55267348Y-87809627D02*
X56080148Y-87267761D01*
X55267348Y-87267761D02*
X56080148Y-87809627D01*
X56080148Y-86532370D02*
X56080148Y-86996827D01*
X56080148Y-86764599D02*
X55267348Y-86764599D01*
X55267348Y-86764599D02*
X55383463Y-86842008D01*
X55383463Y-86842008D02*
X55460872Y-86919418D01*
X55460872Y-86919418D02*
X55499577Y-86996827D01*
X171726463Y-97750904D02*
X172535986Y-97750904D01*
X172535986Y-97750904D02*
X172631224Y-97703285D01*
X172631224Y-97703285D02*
X172678844Y-97655666D01*
X172678844Y-97655666D02*
X172726463Y-97560428D01*
X172726463Y-97560428D02*
X172726463Y-97369952D01*
X172726463Y-97369952D02*
X172678844Y-97274714D01*
X172678844Y-97274714D02*
X172631224Y-97227095D01*
X172631224Y-97227095D02*
X172535986Y-97179476D01*
X172535986Y-97179476D02*
X171726463Y-97179476D01*
X171726463Y-96798523D02*
X171726463Y-96179476D01*
X171726463Y-96179476D02*
X172107415Y-96512809D01*
X172107415Y-96512809D02*
X172107415Y-96369952D01*
X172107415Y-96369952D02*
X172155034Y-96274714D01*
X172155034Y-96274714D02*
X172202653Y-96227095D01*
X172202653Y-96227095D02*
X172297891Y-96179476D01*
X172297891Y-96179476D02*
X172535986Y-96179476D01*
X172535986Y-96179476D02*
X172631224Y-96227095D01*
X172631224Y-96227095D02*
X172678844Y-96274714D01*
X172678844Y-96274714D02*
X172726463Y-96369952D01*
X172726463Y-96369952D02*
X172726463Y-96655666D01*
X172726463Y-96655666D02*
X172678844Y-96750904D01*
X172678844Y-96750904D02*
X172631224Y-96798523D01*
D16*
X169448762Y-84758489D02*
X169520190Y-84544203D01*
X169520190Y-84544203D02*
X169591619Y-84472774D01*
X169591619Y-84472774D02*
X169734476Y-84401346D01*
X169734476Y-84401346D02*
X169948762Y-84401346D01*
X169948762Y-84401346D02*
X170091619Y-84472774D01*
X170091619Y-84472774D02*
X170163048Y-84544203D01*
X170163048Y-84544203D02*
X170234476Y-84687060D01*
X170234476Y-84687060D02*
X170234476Y-85258489D01*
X170234476Y-85258489D02*
X168734476Y-85258489D01*
X168734476Y-85258489D02*
X168734476Y-84758489D01*
X168734476Y-84758489D02*
X168805905Y-84615632D01*
X168805905Y-84615632D02*
X168877333Y-84544203D01*
X168877333Y-84544203D02*
X169020190Y-84472774D01*
X169020190Y-84472774D02*
X169163048Y-84472774D01*
X169163048Y-84472774D02*
X169305905Y-84544203D01*
X169305905Y-84544203D02*
X169377333Y-84615632D01*
X169377333Y-84615632D02*
X169448762Y-84758489D01*
X169448762Y-84758489D02*
X169448762Y-85258489D01*
X176257505Y-85279117D02*
X176257505Y-84564832D01*
X176686076Y-85421974D02*
X175186076Y-84921974D01*
X175186076Y-84921974D02*
X176686076Y-84421974D01*
D10*
X148424780Y-114281924D02*
X148153847Y-113894877D01*
X147960323Y-114281924D02*
X147960323Y-113469124D01*
X147960323Y-113469124D02*
X148269961Y-113469124D01*
X148269961Y-113469124D02*
X148347371Y-113507829D01*
X148347371Y-113507829D02*
X148386076Y-113546534D01*
X148386076Y-113546534D02*
X148424780Y-113623943D01*
X148424780Y-113623943D02*
X148424780Y-113740058D01*
X148424780Y-113740058D02*
X148386076Y-113817467D01*
X148386076Y-113817467D02*
X148347371Y-113856172D01*
X148347371Y-113856172D02*
X148269961Y-113894877D01*
X148269961Y-113894877D02*
X147960323Y-113894877D01*
X148695714Y-113469124D02*
X149198876Y-113469124D01*
X149198876Y-113469124D02*
X148927942Y-113778762D01*
X148927942Y-113778762D02*
X149044057Y-113778762D01*
X149044057Y-113778762D02*
X149121466Y-113817467D01*
X149121466Y-113817467D02*
X149160171Y-113856172D01*
X149160171Y-113856172D02*
X149198876Y-113933581D01*
X149198876Y-113933581D02*
X149198876Y-114127105D01*
X149198876Y-114127105D02*
X149160171Y-114204515D01*
X149160171Y-114204515D02*
X149121466Y-114243220D01*
X149121466Y-114243220D02*
X149044057Y-114281924D01*
X149044057Y-114281924D02*
X148811828Y-114281924D01*
X148811828Y-114281924D02*
X148734419Y-114243220D01*
X148734419Y-114243220D02*
X148695714Y-114204515D01*
X152234780Y-109201924D02*
X151963847Y-108814877D01*
X151770323Y-109201924D02*
X151770323Y-108389124D01*
X151770323Y-108389124D02*
X152079961Y-108389124D01*
X152079961Y-108389124D02*
X152157371Y-108427829D01*
X152157371Y-108427829D02*
X152196076Y-108466534D01*
X152196076Y-108466534D02*
X152234780Y-108543943D01*
X152234780Y-108543943D02*
X152234780Y-108660058D01*
X152234780Y-108660058D02*
X152196076Y-108737467D01*
X152196076Y-108737467D02*
X152157371Y-108776172D01*
X152157371Y-108776172D02*
X152079961Y-108814877D01*
X152079961Y-108814877D02*
X151770323Y-108814877D01*
X152931466Y-108660058D02*
X152931466Y-109201924D01*
X152737942Y-108350420D02*
X152544419Y-108930991D01*
X152544419Y-108930991D02*
X153047580Y-108930991D01*
D13*
X184931324Y-93583059D02*
X185794924Y-93583059D01*
X184931324Y-93994297D02*
X185794924Y-93994297D01*
X185794924Y-93994297D02*
X184931324Y-94487782D01*
X184931324Y-94487782D02*
X185794924Y-94487782D01*
X185794924Y-94775649D02*
X185794924Y-95269135D01*
X184931324Y-95022392D02*
X185794924Y-95022392D01*
X187718067Y-93654420D02*
X187718067Y-94065658D01*
X187471324Y-93572172D02*
X188334924Y-93860039D01*
X188334924Y-93860039D02*
X187471324Y-94147905D01*
X187471324Y-94435773D02*
X188334924Y-94435773D01*
X188334924Y-94435773D02*
X188334924Y-94641392D01*
X188334924Y-94641392D02*
X188293800Y-94764763D01*
X188293800Y-94764763D02*
X188211552Y-94847011D01*
X188211552Y-94847011D02*
X188129305Y-94888134D01*
X188129305Y-94888134D02*
X187964809Y-94929258D01*
X187964809Y-94929258D02*
X187841438Y-94929258D01*
X187841438Y-94929258D02*
X187676943Y-94888134D01*
X187676943Y-94888134D02*
X187594695Y-94847011D01*
X187594695Y-94847011D02*
X187512448Y-94764763D01*
X187512448Y-94764763D02*
X187471324Y-94641392D01*
X187471324Y-94641392D02*
X187471324Y-94435773D01*
X187471324Y-95299373D02*
X188334924Y-95299373D01*
X188334924Y-95299373D02*
X188334924Y-95504992D01*
X188334924Y-95504992D02*
X188293800Y-95628363D01*
X188293800Y-95628363D02*
X188211552Y-95710611D01*
X188211552Y-95710611D02*
X188129305Y-95751734D01*
X188129305Y-95751734D02*
X187964809Y-95792858D01*
X187964809Y-95792858D02*
X187841438Y-95792858D01*
X187841438Y-95792858D02*
X187676943Y-95751734D01*
X187676943Y-95751734D02*
X187594695Y-95710611D01*
X187594695Y-95710611D02*
X187512448Y-95628363D01*
X187512448Y-95628363D02*
X187471324Y-95504992D01*
X187471324Y-95504992D02*
X187471324Y-95299373D01*
X190874924Y-93445173D02*
X190011324Y-94020906D01*
X190874924Y-94020906D02*
X190011324Y-93445173D01*
X190093571Y-94843382D02*
X190052448Y-94802258D01*
X190052448Y-94802258D02*
X190011324Y-94678887D01*
X190011324Y-94678887D02*
X190011324Y-94596639D01*
X190011324Y-94596639D02*
X190052448Y-94473268D01*
X190052448Y-94473268D02*
X190134695Y-94391020D01*
X190134695Y-94391020D02*
X190216943Y-94349897D01*
X190216943Y-94349897D02*
X190381438Y-94308773D01*
X190381438Y-94308773D02*
X190504809Y-94308773D01*
X190504809Y-94308773D02*
X190669305Y-94349897D01*
X190669305Y-94349897D02*
X190751552Y-94391020D01*
X190751552Y-94391020D02*
X190833800Y-94473268D01*
X190833800Y-94473268D02*
X190874924Y-94596639D01*
X190874924Y-94596639D02*
X190874924Y-94678887D01*
X190874924Y-94678887D02*
X190833800Y-94802258D01*
X190833800Y-94802258D02*
X190792676Y-94843382D01*
X190011324Y-95624735D02*
X190011324Y-95213497D01*
X190011324Y-95213497D02*
X190874924Y-95213497D01*
X193440324Y-93378649D02*
X192576724Y-93954382D01*
X193440324Y-93954382D02*
X192576724Y-93378649D01*
X192576724Y-94283373D02*
X193440324Y-94283373D01*
X193440324Y-94283373D02*
X193440324Y-94488992D01*
X193440324Y-94488992D02*
X193399200Y-94612363D01*
X193399200Y-94612363D02*
X193316952Y-94694611D01*
X193316952Y-94694611D02*
X193234705Y-94735734D01*
X193234705Y-94735734D02*
X193070209Y-94776858D01*
X193070209Y-94776858D02*
X192946838Y-94776858D01*
X192946838Y-94776858D02*
X192782343Y-94735734D01*
X192782343Y-94735734D02*
X192700095Y-94694611D01*
X192700095Y-94694611D02*
X192617848Y-94612363D01*
X192617848Y-94612363D02*
X192576724Y-94488992D01*
X192576724Y-94488992D02*
X192576724Y-94283373D01*
X192823467Y-95105849D02*
X192823467Y-95517087D01*
X192576724Y-95023601D02*
X193440324Y-95311468D01*
X193440324Y-95311468D02*
X192576724Y-95599334D01*
D10*
X204224039Y-103760984D02*
X204224039Y-104760984D01*
X204224039Y-104760984D02*
X203890706Y-104046699D01*
X203890706Y-104046699D02*
X203557373Y-104760984D01*
X203557373Y-104760984D02*
X203557373Y-103760984D01*
X203081182Y-103760984D02*
X203081182Y-104760984D01*
X203081182Y-104760984D02*
X202700230Y-104760984D01*
X202700230Y-104760984D02*
X202604992Y-104713365D01*
X202604992Y-104713365D02*
X202557373Y-104665746D01*
X202557373Y-104665746D02*
X202509754Y-104570508D01*
X202509754Y-104570508D02*
X202509754Y-104427651D01*
X202509754Y-104427651D02*
X202557373Y-104332413D01*
X202557373Y-104332413D02*
X202604992Y-104284794D01*
X202604992Y-104284794D02*
X202700230Y-104237175D01*
X202700230Y-104237175D02*
X203081182Y-104237175D01*
X202081182Y-104760984D02*
X202081182Y-103951461D01*
X202081182Y-103951461D02*
X202033563Y-103856223D01*
X202033563Y-103856223D02*
X201985944Y-103808604D01*
X201985944Y-103808604D02*
X201890706Y-103760984D01*
X201890706Y-103760984D02*
X201700230Y-103760984D01*
X201700230Y-103760984D02*
X201604992Y-103808604D01*
X201604992Y-103808604D02*
X201557373Y-103856223D01*
X201557373Y-103856223D02*
X201509754Y-103951461D01*
X201509754Y-103951461D02*
X201509754Y-104760984D01*
X200604992Y-104760984D02*
X200795468Y-104760984D01*
X200795468Y-104760984D02*
X200890706Y-104713365D01*
X200890706Y-104713365D02*
X200938325Y-104665746D01*
X200938325Y-104665746D02*
X201033563Y-104522889D01*
X201033563Y-104522889D02*
X201081182Y-104332413D01*
X201081182Y-104332413D02*
X201081182Y-103951461D01*
X201081182Y-103951461D02*
X201033563Y-103856223D01*
X201033563Y-103856223D02*
X200985944Y-103808604D01*
X200985944Y-103808604D02*
X200890706Y-103760984D01*
X200890706Y-103760984D02*
X200700230Y-103760984D01*
X200700230Y-103760984D02*
X200604992Y-103808604D01*
X200604992Y-103808604D02*
X200557373Y-103856223D01*
X200557373Y-103856223D02*
X200509754Y-103951461D01*
X200509754Y-103951461D02*
X200509754Y-104189556D01*
X200509754Y-104189556D02*
X200557373Y-104284794D01*
X200557373Y-104284794D02*
X200604992Y-104332413D01*
X200604992Y-104332413D02*
X200700230Y-104380032D01*
X200700230Y-104380032D02*
X200890706Y-104380032D01*
X200890706Y-104380032D02*
X200985944Y-104332413D01*
X200985944Y-104332413D02*
X201033563Y-104284794D01*
X201033563Y-104284794D02*
X201081182Y-104189556D01*
X199890706Y-104760984D02*
X199795468Y-104760984D01*
X199795468Y-104760984D02*
X199700230Y-104713365D01*
X199700230Y-104713365D02*
X199652611Y-104665746D01*
X199652611Y-104665746D02*
X199604992Y-104570508D01*
X199604992Y-104570508D02*
X199557373Y-104380032D01*
X199557373Y-104380032D02*
X199557373Y-104141937D01*
X199557373Y-104141937D02*
X199604992Y-103951461D01*
X199604992Y-103951461D02*
X199652611Y-103856223D01*
X199652611Y-103856223D02*
X199700230Y-103808604D01*
X199700230Y-103808604D02*
X199795468Y-103760984D01*
X199795468Y-103760984D02*
X199890706Y-103760984D01*
X199890706Y-103760984D02*
X199985944Y-103808604D01*
X199985944Y-103808604D02*
X200033563Y-103856223D01*
X200033563Y-103856223D02*
X200081182Y-103951461D01*
X200081182Y-103951461D02*
X200128801Y-104141937D01*
X200128801Y-104141937D02*
X200128801Y-104380032D01*
X200128801Y-104380032D02*
X200081182Y-104570508D01*
X200081182Y-104570508D02*
X200033563Y-104665746D01*
X200033563Y-104665746D02*
X199985944Y-104713365D01*
X199985944Y-104713365D02*
X199890706Y-104760984D01*
X198652611Y-104760984D02*
X199128801Y-104760984D01*
X199128801Y-104760984D02*
X199176420Y-104284794D01*
X199176420Y-104284794D02*
X199128801Y-104332413D01*
X199128801Y-104332413D02*
X199033563Y-104380032D01*
X199033563Y-104380032D02*
X198795468Y-104380032D01*
X198795468Y-104380032D02*
X198700230Y-104332413D01*
X198700230Y-104332413D02*
X198652611Y-104284794D01*
X198652611Y-104284794D02*
X198604992Y-104189556D01*
X198604992Y-104189556D02*
X198604992Y-103951461D01*
X198604992Y-103951461D02*
X198652611Y-103856223D01*
X198652611Y-103856223D02*
X198700230Y-103808604D01*
X198700230Y-103808604D02*
X198795468Y-103760984D01*
X198795468Y-103760984D02*
X199033563Y-103760984D01*
X199033563Y-103760984D02*
X199128801Y-103808604D01*
X199128801Y-103808604D02*
X199176420Y-103856223D01*
X197985944Y-104760984D02*
X197890706Y-104760984D01*
X197890706Y-104760984D02*
X197795468Y-104713365D01*
X197795468Y-104713365D02*
X197747849Y-104665746D01*
X197747849Y-104665746D02*
X197700230Y-104570508D01*
X197700230Y-104570508D02*
X197652611Y-104380032D01*
X197652611Y-104380032D02*
X197652611Y-104141937D01*
X197652611Y-104141937D02*
X197700230Y-103951461D01*
X197700230Y-103951461D02*
X197747849Y-103856223D01*
X197747849Y-103856223D02*
X197795468Y-103808604D01*
X197795468Y-103808604D02*
X197890706Y-103760984D01*
X197890706Y-103760984D02*
X197985944Y-103760984D01*
X197985944Y-103760984D02*
X198081182Y-103808604D01*
X198081182Y-103808604D02*
X198128801Y-103856223D01*
X198128801Y-103856223D02*
X198176420Y-103951461D01*
X198176420Y-103951461D02*
X198224039Y-104141937D01*
X198224039Y-104141937D02*
X198224039Y-104380032D01*
X198224039Y-104380032D02*
X198176420Y-104570508D01*
X198176420Y-104570508D02*
X198128801Y-104665746D01*
X198128801Y-104665746D02*
X198081182Y-104713365D01*
X198081182Y-104713365D02*
X197985944Y-104760984D01*
X196128801Y-104284794D02*
X195985944Y-104237175D01*
X195985944Y-104237175D02*
X195938325Y-104189556D01*
X195938325Y-104189556D02*
X195890706Y-104094318D01*
X195890706Y-104094318D02*
X195890706Y-103951461D01*
X195890706Y-103951461D02*
X195938325Y-103856223D01*
X195938325Y-103856223D02*
X195985944Y-103808604D01*
X195985944Y-103808604D02*
X196081182Y-103760984D01*
X196081182Y-103760984D02*
X196462134Y-103760984D01*
X196462134Y-103760984D02*
X196462134Y-104760984D01*
X196462134Y-104760984D02*
X196128801Y-104760984D01*
X196128801Y-104760984D02*
X196033563Y-104713365D01*
X196033563Y-104713365D02*
X195985944Y-104665746D01*
X195985944Y-104665746D02*
X195938325Y-104570508D01*
X195938325Y-104570508D02*
X195938325Y-104475270D01*
X195938325Y-104475270D02*
X195985944Y-104380032D01*
X195985944Y-104380032D02*
X196033563Y-104332413D01*
X196033563Y-104332413D02*
X196128801Y-104284794D01*
X196128801Y-104284794D02*
X196462134Y-104284794D01*
X195462134Y-103760984D02*
X195462134Y-104427651D01*
X195462134Y-104237175D02*
X195414515Y-104332413D01*
X195414515Y-104332413D02*
X195366896Y-104380032D01*
X195366896Y-104380032D02*
X195271658Y-104427651D01*
X195271658Y-104427651D02*
X195176420Y-104427651D01*
X194462134Y-103808604D02*
X194557372Y-103760984D01*
X194557372Y-103760984D02*
X194747848Y-103760984D01*
X194747848Y-103760984D02*
X194843086Y-103808604D01*
X194843086Y-103808604D02*
X194890705Y-103903842D01*
X194890705Y-103903842D02*
X194890705Y-104284794D01*
X194890705Y-104284794D02*
X194843086Y-104380032D01*
X194843086Y-104380032D02*
X194747848Y-104427651D01*
X194747848Y-104427651D02*
X194557372Y-104427651D01*
X194557372Y-104427651D02*
X194462134Y-104380032D01*
X194462134Y-104380032D02*
X194414515Y-104284794D01*
X194414515Y-104284794D02*
X194414515Y-104189556D01*
X194414515Y-104189556D02*
X194890705Y-104094318D01*
X193557372Y-103760984D02*
X193557372Y-104284794D01*
X193557372Y-104284794D02*
X193604991Y-104380032D01*
X193604991Y-104380032D02*
X193700229Y-104427651D01*
X193700229Y-104427651D02*
X193890705Y-104427651D01*
X193890705Y-104427651D02*
X193985943Y-104380032D01*
X193557372Y-103808604D02*
X193652610Y-103760984D01*
X193652610Y-103760984D02*
X193890705Y-103760984D01*
X193890705Y-103760984D02*
X193985943Y-103808604D01*
X193985943Y-103808604D02*
X194033562Y-103903842D01*
X194033562Y-103903842D02*
X194033562Y-103999080D01*
X194033562Y-103999080D02*
X193985943Y-104094318D01*
X193985943Y-104094318D02*
X193890705Y-104141937D01*
X193890705Y-104141937D02*
X193652610Y-104141937D01*
X193652610Y-104141937D02*
X193557372Y-104189556D01*
X193081181Y-103760984D02*
X193081181Y-104760984D01*
X192985943Y-104141937D02*
X192700229Y-103760984D01*
X192700229Y-104427651D02*
X193081181Y-104046699D01*
X192128800Y-103760984D02*
X192224038Y-103808604D01*
X192224038Y-103808604D02*
X192271657Y-103856223D01*
X192271657Y-103856223D02*
X192319276Y-103951461D01*
X192319276Y-103951461D02*
X192319276Y-104237175D01*
X192319276Y-104237175D02*
X192271657Y-104332413D01*
X192271657Y-104332413D02*
X192224038Y-104380032D01*
X192224038Y-104380032D02*
X192128800Y-104427651D01*
X192128800Y-104427651D02*
X191985943Y-104427651D01*
X191985943Y-104427651D02*
X191890705Y-104380032D01*
X191890705Y-104380032D02*
X191843086Y-104332413D01*
X191843086Y-104332413D02*
X191795467Y-104237175D01*
X191795467Y-104237175D02*
X191795467Y-103951461D01*
X191795467Y-103951461D02*
X191843086Y-103856223D01*
X191843086Y-103856223D02*
X191890705Y-103808604D01*
X191890705Y-103808604D02*
X191985943Y-103760984D01*
X191985943Y-103760984D02*
X192128800Y-103760984D01*
X190938324Y-104427651D02*
X190938324Y-103760984D01*
X191366895Y-104427651D02*
X191366895Y-103903842D01*
X191366895Y-103903842D02*
X191319276Y-103808604D01*
X191319276Y-103808604D02*
X191224038Y-103760984D01*
X191224038Y-103760984D02*
X191081181Y-103760984D01*
X191081181Y-103760984D02*
X190985943Y-103808604D01*
X190985943Y-103808604D02*
X190938324Y-103856223D01*
X190604990Y-104427651D02*
X190224038Y-104427651D01*
X190462133Y-104760984D02*
X190462133Y-103903842D01*
X190462133Y-103903842D02*
X190414514Y-103808604D01*
X190414514Y-103808604D02*
X190319276Y-103760984D01*
X190319276Y-103760984D02*
X190224038Y-103760984D01*
X188795466Y-104284794D02*
X188652609Y-104237175D01*
X188652609Y-104237175D02*
X188604990Y-104189556D01*
X188604990Y-104189556D02*
X188557371Y-104094318D01*
X188557371Y-104094318D02*
X188557371Y-103951461D01*
X188557371Y-103951461D02*
X188604990Y-103856223D01*
X188604990Y-103856223D02*
X188652609Y-103808604D01*
X188652609Y-103808604D02*
X188747847Y-103760984D01*
X188747847Y-103760984D02*
X189128799Y-103760984D01*
X189128799Y-103760984D02*
X189128799Y-104760984D01*
X189128799Y-104760984D02*
X188795466Y-104760984D01*
X188795466Y-104760984D02*
X188700228Y-104713365D01*
X188700228Y-104713365D02*
X188652609Y-104665746D01*
X188652609Y-104665746D02*
X188604990Y-104570508D01*
X188604990Y-104570508D02*
X188604990Y-104475270D01*
X188604990Y-104475270D02*
X188652609Y-104380032D01*
X188652609Y-104380032D02*
X188700228Y-104332413D01*
X188700228Y-104332413D02*
X188795466Y-104284794D01*
X188795466Y-104284794D02*
X189128799Y-104284794D01*
X187985942Y-103760984D02*
X188081180Y-103808604D01*
X188081180Y-103808604D02*
X188128799Y-103856223D01*
X188128799Y-103856223D02*
X188176418Y-103951461D01*
X188176418Y-103951461D02*
X188176418Y-104237175D01*
X188176418Y-104237175D02*
X188128799Y-104332413D01*
X188128799Y-104332413D02*
X188081180Y-104380032D01*
X188081180Y-104380032D02*
X187985942Y-104427651D01*
X187985942Y-104427651D02*
X187843085Y-104427651D01*
X187843085Y-104427651D02*
X187747847Y-104380032D01*
X187747847Y-104380032D02*
X187700228Y-104332413D01*
X187700228Y-104332413D02*
X187652609Y-104237175D01*
X187652609Y-104237175D02*
X187652609Y-103951461D01*
X187652609Y-103951461D02*
X187700228Y-103856223D01*
X187700228Y-103856223D02*
X187747847Y-103808604D01*
X187747847Y-103808604D02*
X187843085Y-103760984D01*
X187843085Y-103760984D02*
X187985942Y-103760984D01*
X186795466Y-103760984D02*
X186795466Y-104284794D01*
X186795466Y-104284794D02*
X186843085Y-104380032D01*
X186843085Y-104380032D02*
X186938323Y-104427651D01*
X186938323Y-104427651D02*
X187128799Y-104427651D01*
X187128799Y-104427651D02*
X187224037Y-104380032D01*
X186795466Y-103808604D02*
X186890704Y-103760984D01*
X186890704Y-103760984D02*
X187128799Y-103760984D01*
X187128799Y-103760984D02*
X187224037Y-103808604D01*
X187224037Y-103808604D02*
X187271656Y-103903842D01*
X187271656Y-103903842D02*
X187271656Y-103999080D01*
X187271656Y-103999080D02*
X187224037Y-104094318D01*
X187224037Y-104094318D02*
X187128799Y-104141937D01*
X187128799Y-104141937D02*
X186890704Y-104141937D01*
X186890704Y-104141937D02*
X186795466Y-104189556D01*
X186319275Y-103760984D02*
X186319275Y-104427651D01*
X186319275Y-104237175D02*
X186271656Y-104332413D01*
X186271656Y-104332413D02*
X186224037Y-104380032D01*
X186224037Y-104380032D02*
X186128799Y-104427651D01*
X186128799Y-104427651D02*
X186033561Y-104427651D01*
X185271656Y-103760984D02*
X185271656Y-104760984D01*
X185271656Y-103808604D02*
X185366894Y-103760984D01*
X185366894Y-103760984D02*
X185557370Y-103760984D01*
X185557370Y-103760984D02*
X185652608Y-103808604D01*
X185652608Y-103808604D02*
X185700227Y-103856223D01*
X185700227Y-103856223D02*
X185747846Y-103951461D01*
X185747846Y-103951461D02*
X185747846Y-104237175D01*
X185747846Y-104237175D02*
X185700227Y-104332413D01*
X185700227Y-104332413D02*
X185652608Y-104380032D01*
X185652608Y-104380032D02*
X185557370Y-104427651D01*
X185557370Y-104427651D02*
X185366894Y-104427651D01*
X185366894Y-104427651D02*
X185271656Y-104380032D01*
D13*
X195132448Y-93485087D02*
X195091324Y-93608458D01*
X195091324Y-93608458D02*
X195091324Y-93814077D01*
X195091324Y-93814077D02*
X195132448Y-93896325D01*
X195132448Y-93896325D02*
X195173571Y-93937449D01*
X195173571Y-93937449D02*
X195255819Y-93978572D01*
X195255819Y-93978572D02*
X195338067Y-93978572D01*
X195338067Y-93978572D02*
X195420314Y-93937449D01*
X195420314Y-93937449D02*
X195461438Y-93896325D01*
X195461438Y-93896325D02*
X195502562Y-93814077D01*
X195502562Y-93814077D02*
X195543686Y-93649582D01*
X195543686Y-93649582D02*
X195584809Y-93567334D01*
X195584809Y-93567334D02*
X195625933Y-93526211D01*
X195625933Y-93526211D02*
X195708181Y-93485087D01*
X195708181Y-93485087D02*
X195790428Y-93485087D01*
X195790428Y-93485087D02*
X195872676Y-93526211D01*
X195872676Y-93526211D02*
X195913800Y-93567334D01*
X195913800Y-93567334D02*
X195954924Y-93649582D01*
X195954924Y-93649582D02*
X195954924Y-93855201D01*
X195954924Y-93855201D02*
X195913800Y-93978572D01*
X195091324Y-94348687D02*
X195954924Y-94348687D01*
X195954924Y-94348687D02*
X195954924Y-94554306D01*
X195954924Y-94554306D02*
X195913800Y-94677677D01*
X195913800Y-94677677D02*
X195831552Y-94759925D01*
X195831552Y-94759925D02*
X195749305Y-94801048D01*
X195749305Y-94801048D02*
X195584809Y-94842172D01*
X195584809Y-94842172D02*
X195461438Y-94842172D01*
X195461438Y-94842172D02*
X195296943Y-94801048D01*
X195296943Y-94801048D02*
X195214695Y-94759925D01*
X195214695Y-94759925D02*
X195132448Y-94677677D01*
X195132448Y-94677677D02*
X195091324Y-94554306D01*
X195091324Y-94554306D02*
X195091324Y-94348687D01*
X195338067Y-95171163D02*
X195338067Y-95582401D01*
X195091324Y-95088915D02*
X195954924Y-95376782D01*
X195954924Y-95376782D02*
X195091324Y-95664648D01*
X197672448Y-93445173D02*
X197631324Y-93568544D01*
X197631324Y-93568544D02*
X197631324Y-93774163D01*
X197631324Y-93774163D02*
X197672448Y-93856411D01*
X197672448Y-93856411D02*
X197713571Y-93897535D01*
X197713571Y-93897535D02*
X197795819Y-93938658D01*
X197795819Y-93938658D02*
X197878067Y-93938658D01*
X197878067Y-93938658D02*
X197960314Y-93897535D01*
X197960314Y-93897535D02*
X198001438Y-93856411D01*
X198001438Y-93856411D02*
X198042562Y-93774163D01*
X198042562Y-93774163D02*
X198083686Y-93609668D01*
X198083686Y-93609668D02*
X198124809Y-93527420D01*
X198124809Y-93527420D02*
X198165933Y-93486297D01*
X198165933Y-93486297D02*
X198248181Y-93445173D01*
X198248181Y-93445173D02*
X198330428Y-93445173D01*
X198330428Y-93445173D02*
X198412676Y-93486297D01*
X198412676Y-93486297D02*
X198453800Y-93527420D01*
X198453800Y-93527420D02*
X198494924Y-93609668D01*
X198494924Y-93609668D02*
X198494924Y-93815287D01*
X198494924Y-93815287D02*
X198453800Y-93938658D01*
X197713571Y-94802258D02*
X197672448Y-94761134D01*
X197672448Y-94761134D02*
X197631324Y-94637763D01*
X197631324Y-94637763D02*
X197631324Y-94555515D01*
X197631324Y-94555515D02*
X197672448Y-94432144D01*
X197672448Y-94432144D02*
X197754695Y-94349896D01*
X197754695Y-94349896D02*
X197836943Y-94308773D01*
X197836943Y-94308773D02*
X198001438Y-94267649D01*
X198001438Y-94267649D02*
X198124809Y-94267649D01*
X198124809Y-94267649D02*
X198289305Y-94308773D01*
X198289305Y-94308773D02*
X198371552Y-94349896D01*
X198371552Y-94349896D02*
X198453800Y-94432144D01*
X198453800Y-94432144D02*
X198494924Y-94555515D01*
X198494924Y-94555515D02*
X198494924Y-94637763D01*
X198494924Y-94637763D02*
X198453800Y-94761134D01*
X198453800Y-94761134D02*
X198412676Y-94802258D01*
X197631324Y-95583611D02*
X197631324Y-95172373D01*
X197631324Y-95172373D02*
X198494924Y-95172373D01*
X198799724Y-99808478D02*
X197936124Y-100384211D01*
X198799724Y-100384211D02*
X197936124Y-99808478D01*
X199998362Y-100137468D02*
X199587124Y-100137468D01*
X200450724Y-99849601D02*
X199998362Y-100137468D01*
X199998362Y-100137468D02*
X200450724Y-100425334D01*
X200993800Y-94153953D02*
X201034924Y-94071706D01*
X201034924Y-94071706D02*
X201034924Y-93948334D01*
X201034924Y-93948334D02*
X200993800Y-93824963D01*
X200993800Y-93824963D02*
X200911552Y-93742715D01*
X200911552Y-93742715D02*
X200829305Y-93701592D01*
X200829305Y-93701592D02*
X200664809Y-93660468D01*
X200664809Y-93660468D02*
X200541438Y-93660468D01*
X200541438Y-93660468D02*
X200376943Y-93701592D01*
X200376943Y-93701592D02*
X200294695Y-93742715D01*
X200294695Y-93742715D02*
X200212448Y-93824963D01*
X200212448Y-93824963D02*
X200171324Y-93948334D01*
X200171324Y-93948334D02*
X200171324Y-94030582D01*
X200171324Y-94030582D02*
X200212448Y-94153953D01*
X200212448Y-94153953D02*
X200253571Y-94195077D01*
X200253571Y-94195077D02*
X200541438Y-94195077D01*
X200541438Y-94195077D02*
X200541438Y-94030582D01*
X200171324Y-94565192D02*
X201034924Y-94565192D01*
X201034924Y-94565192D02*
X200171324Y-95058677D01*
X200171324Y-95058677D02*
X201034924Y-95058677D01*
X200171324Y-95469916D02*
X201034924Y-95469916D01*
X201034924Y-95469916D02*
X201034924Y-95675535D01*
X201034924Y-95675535D02*
X200993800Y-95798906D01*
X200993800Y-95798906D02*
X200911552Y-95881154D01*
X200911552Y-95881154D02*
X200829305Y-95922277D01*
X200829305Y-95922277D02*
X200664809Y-95963401D01*
X200664809Y-95963401D02*
X200541438Y-95963401D01*
X200541438Y-95963401D02*
X200376943Y-95922277D01*
X200376943Y-95922277D02*
X200294695Y-95881154D01*
X200294695Y-95881154D02*
X200212448Y-95798906D01*
X200212448Y-95798906D02*
X200171324Y-95675535D01*
X200171324Y-95675535D02*
X200171324Y-95469916D01*
X202228724Y-99808478D02*
X202228724Y-100384211D01*
X202228724Y-100384211D02*
X201365124Y-99808478D01*
X201365124Y-99808478D02*
X201365124Y-100384211D01*
X203549524Y-93562496D02*
X202685924Y-93850363D01*
X202685924Y-93850363D02*
X203549524Y-94138229D01*
X202768171Y-94919582D02*
X202727048Y-94878458D01*
X202727048Y-94878458D02*
X202685924Y-94755087D01*
X202685924Y-94755087D02*
X202685924Y-94672839D01*
X202685924Y-94672839D02*
X202727048Y-94549468D01*
X202727048Y-94549468D02*
X202809295Y-94467220D01*
X202809295Y-94467220D02*
X202891543Y-94426097D01*
X202891543Y-94426097D02*
X203056038Y-94384973D01*
X203056038Y-94384973D02*
X203179409Y-94384973D01*
X203179409Y-94384973D02*
X203343905Y-94426097D01*
X203343905Y-94426097D02*
X203426152Y-94467220D01*
X203426152Y-94467220D02*
X203508400Y-94549468D01*
X203508400Y-94549468D02*
X203549524Y-94672839D01*
X203549524Y-94672839D02*
X203549524Y-94755087D01*
X203549524Y-94755087D02*
X203508400Y-94878458D01*
X203508400Y-94878458D02*
X203467276Y-94919582D01*
X202768171Y-95783182D02*
X202727048Y-95742058D01*
X202727048Y-95742058D02*
X202685924Y-95618687D01*
X202685924Y-95618687D02*
X202685924Y-95536439D01*
X202685924Y-95536439D02*
X202727048Y-95413068D01*
X202727048Y-95413068D02*
X202809295Y-95330820D01*
X202809295Y-95330820D02*
X202891543Y-95289697D01*
X202891543Y-95289697D02*
X203056038Y-95248573D01*
X203056038Y-95248573D02*
X203179409Y-95248573D01*
X203179409Y-95248573D02*
X203343905Y-95289697D01*
X203343905Y-95289697D02*
X203426152Y-95330820D01*
X203426152Y-95330820D02*
X203508400Y-95413068D01*
X203508400Y-95413068D02*
X203549524Y-95536439D01*
X203549524Y-95536439D02*
X203549524Y-95618687D01*
X203549524Y-95618687D02*
X203508400Y-95742058D01*
X203508400Y-95742058D02*
X203467276Y-95783182D01*
D10*
X93446263Y-97750904D02*
X94255786Y-97750904D01*
X94255786Y-97750904D02*
X94351024Y-97703285D01*
X94351024Y-97703285D02*
X94398644Y-97655666D01*
X94398644Y-97655666D02*
X94446263Y-97560428D01*
X94446263Y-97560428D02*
X94446263Y-97369952D01*
X94446263Y-97369952D02*
X94398644Y-97274714D01*
X94398644Y-97274714D02*
X94351024Y-97227095D01*
X94351024Y-97227095D02*
X94255786Y-97179476D01*
X94255786Y-97179476D02*
X93446263Y-97179476D01*
X93541501Y-96750904D02*
X93493882Y-96703285D01*
X93493882Y-96703285D02*
X93446263Y-96608047D01*
X93446263Y-96608047D02*
X93446263Y-96369952D01*
X93446263Y-96369952D02*
X93493882Y-96274714D01*
X93493882Y-96274714D02*
X93541501Y-96227095D01*
X93541501Y-96227095D02*
X93636739Y-96179476D01*
X93636739Y-96179476D02*
X93731977Y-96179476D01*
X93731977Y-96179476D02*
X93874834Y-96227095D01*
X93874834Y-96227095D02*
X94446263Y-96798523D01*
X94446263Y-96798523D02*
X94446263Y-96179476D01*
D16*
X99403562Y-84758489D02*
X99474990Y-84544203D01*
X99474990Y-84544203D02*
X99546419Y-84472774D01*
X99546419Y-84472774D02*
X99689276Y-84401346D01*
X99689276Y-84401346D02*
X99903562Y-84401346D01*
X99903562Y-84401346D02*
X100046419Y-84472774D01*
X100046419Y-84472774D02*
X100117848Y-84544203D01*
X100117848Y-84544203D02*
X100189276Y-84687060D01*
X100189276Y-84687060D02*
X100189276Y-85258489D01*
X100189276Y-85258489D02*
X98689276Y-85258489D01*
X98689276Y-85258489D02*
X98689276Y-84758489D01*
X98689276Y-84758489D02*
X98760705Y-84615632D01*
X98760705Y-84615632D02*
X98832133Y-84544203D01*
X98832133Y-84544203D02*
X98974990Y-84472774D01*
X98974990Y-84472774D02*
X99117848Y-84472774D01*
X99117848Y-84472774D02*
X99260705Y-84544203D01*
X99260705Y-84544203D02*
X99332133Y-84615632D01*
X99332133Y-84615632D02*
X99403562Y-84758489D01*
X99403562Y-84758489D02*
X99403562Y-85258489D01*
X106212305Y-85279117D02*
X106212305Y-84564832D01*
X106640876Y-85421974D02*
X105140876Y-84921974D01*
X105140876Y-84921974D02*
X106640876Y-84421974D01*
D10*
X153123780Y-82531924D02*
X152852847Y-82144877D01*
X152659323Y-82531924D02*
X152659323Y-81719124D01*
X152659323Y-81719124D02*
X152968961Y-81719124D01*
X152968961Y-81719124D02*
X153046371Y-81757829D01*
X153046371Y-81757829D02*
X153085076Y-81796534D01*
X153085076Y-81796534D02*
X153123780Y-81873943D01*
X153123780Y-81873943D02*
X153123780Y-81990058D01*
X153123780Y-81990058D02*
X153085076Y-82067467D01*
X153085076Y-82067467D02*
X153046371Y-82106172D01*
X153046371Y-82106172D02*
X152968961Y-82144877D01*
X152968961Y-82144877D02*
X152659323Y-82144877D01*
X153859171Y-81719124D02*
X153472123Y-81719124D01*
X153472123Y-81719124D02*
X153433419Y-82106172D01*
X153433419Y-82106172D02*
X153472123Y-82067467D01*
X153472123Y-82067467D02*
X153549533Y-82028762D01*
X153549533Y-82028762D02*
X153743057Y-82028762D01*
X153743057Y-82028762D02*
X153820466Y-82067467D01*
X153820466Y-82067467D02*
X153859171Y-82106172D01*
X153859171Y-82106172D02*
X153897876Y-82183581D01*
X153897876Y-82183581D02*
X153897876Y-82377105D01*
X153897876Y-82377105D02*
X153859171Y-82454515D01*
X153859171Y-82454515D02*
X153820466Y-82493220D01*
X153820466Y-82493220D02*
X153743057Y-82531924D01*
X153743057Y-82531924D02*
X153549533Y-82531924D01*
X153549533Y-82531924D02*
X153472123Y-82493220D01*
X153472123Y-82493220D02*
X153433419Y-82454515D01*
X29487075Y-79091124D02*
X29487075Y-79749105D01*
X29487075Y-79749105D02*
X29525780Y-79826515D01*
X29525780Y-79826515D02*
X29564485Y-79865220D01*
X29564485Y-79865220D02*
X29641894Y-79903924D01*
X29641894Y-79903924D02*
X29796713Y-79903924D01*
X29796713Y-79903924D02*
X29874123Y-79865220D01*
X29874123Y-79865220D02*
X29912828Y-79826515D01*
X29912828Y-79826515D02*
X29951532Y-79749105D01*
X29951532Y-79749105D02*
X29951532Y-79091124D01*
X30686923Y-79091124D02*
X30532104Y-79091124D01*
X30532104Y-79091124D02*
X30454695Y-79129829D01*
X30454695Y-79129829D02*
X30415990Y-79168534D01*
X30415990Y-79168534D02*
X30338580Y-79284648D01*
X30338580Y-79284648D02*
X30299876Y-79439467D01*
X30299876Y-79439467D02*
X30299876Y-79749105D01*
X30299876Y-79749105D02*
X30338580Y-79826515D01*
X30338580Y-79826515D02*
X30377285Y-79865220D01*
X30377285Y-79865220D02*
X30454695Y-79903924D01*
X30454695Y-79903924D02*
X30609514Y-79903924D01*
X30609514Y-79903924D02*
X30686923Y-79865220D01*
X30686923Y-79865220D02*
X30725628Y-79826515D01*
X30725628Y-79826515D02*
X30764333Y-79749105D01*
X30764333Y-79749105D02*
X30764333Y-79555581D01*
X30764333Y-79555581D02*
X30725628Y-79478172D01*
X30725628Y-79478172D02*
X30686923Y-79439467D01*
X30686923Y-79439467D02*
X30609514Y-79400762D01*
X30609514Y-79400762D02*
X30454695Y-79400762D01*
X30454695Y-79400762D02*
X30377285Y-79439467D01*
X30377285Y-79439467D02*
X30338580Y-79478172D01*
X30338580Y-79478172D02*
X30299876Y-79555581D01*
D17*
X81641240Y-104134652D02*
X81641240Y-105049246D01*
X81641240Y-105049246D02*
X81695039Y-105156845D01*
X81695039Y-105156845D02*
X81748839Y-105210645D01*
X81748839Y-105210645D02*
X81856438Y-105264444D01*
X81856438Y-105264444D02*
X82071637Y-105264444D01*
X82071637Y-105264444D02*
X82179236Y-105210645D01*
X82179236Y-105210645D02*
X82233035Y-105156845D01*
X82233035Y-105156845D02*
X82286835Y-105049246D01*
X82286835Y-105049246D02*
X82286835Y-104134652D01*
X83309028Y-104511249D02*
X83309028Y-105264444D01*
X83040030Y-104080853D02*
X82771032Y-104887847D01*
X82771032Y-104887847D02*
X83470427Y-104887847D01*
D10*
X73916990Y-107104301D02*
X74807200Y-107104301D01*
X73916990Y-113604301D02*
X74807200Y-113604301D01*
X74362095Y-114049406D02*
X74362095Y-113159196D01*
X148424780Y-77451924D02*
X148153847Y-77064877D01*
X147960323Y-77451924D02*
X147960323Y-76639124D01*
X147960323Y-76639124D02*
X148269961Y-76639124D01*
X148269961Y-76639124D02*
X148347371Y-76677829D01*
X148347371Y-76677829D02*
X148386076Y-76716534D01*
X148386076Y-76716534D02*
X148424780Y-76793943D01*
X148424780Y-76793943D02*
X148424780Y-76910058D01*
X148424780Y-76910058D02*
X148386076Y-76987467D01*
X148386076Y-76987467D02*
X148347371Y-77026172D01*
X148347371Y-77026172D02*
X148269961Y-77064877D01*
X148269961Y-77064877D02*
X147960323Y-77064877D01*
X148734419Y-76716534D02*
X148773123Y-76677829D01*
X148773123Y-76677829D02*
X148850533Y-76639124D01*
X148850533Y-76639124D02*
X149044057Y-76639124D01*
X149044057Y-76639124D02*
X149121466Y-76677829D01*
X149121466Y-76677829D02*
X149160171Y-76716534D01*
X149160171Y-76716534D02*
X149198876Y-76793943D01*
X149198876Y-76793943D02*
X149198876Y-76871353D01*
X149198876Y-76871353D02*
X149160171Y-76987467D01*
X149160171Y-76987467D02*
X148695714Y-77451924D01*
X148695714Y-77451924D02*
X149198876Y-77451924D01*
D12*
X37931914Y-95768819D02*
X37931914Y-96483104D01*
X37931914Y-96483104D02*
X37884295Y-96625961D01*
X37884295Y-96625961D02*
X37789057Y-96721200D01*
X37789057Y-96721200D02*
X37646200Y-96768819D01*
X37646200Y-96768819D02*
X37550962Y-96768819D01*
X38360486Y-95864057D02*
X38408105Y-95816438D01*
X38408105Y-95816438D02*
X38503343Y-95768819D01*
X38503343Y-95768819D02*
X38741438Y-95768819D01*
X38741438Y-95768819D02*
X38836676Y-95816438D01*
X38836676Y-95816438D02*
X38884295Y-95864057D01*
X38884295Y-95864057D02*
X38931914Y-95959295D01*
X38931914Y-95959295D02*
X38931914Y-96054533D01*
X38931914Y-96054533D02*
X38884295Y-96197390D01*
X38884295Y-96197390D02*
X38312867Y-96768819D01*
X38312867Y-96768819D02*
X38931914Y-96768819D01*
%TO.C,J1*%
D10*
X24290248Y-101369000D02*
X24290248Y-104879000D01*
X27535248Y-99124000D02*
X29045248Y-99124000D01*
X27535248Y-107124000D02*
X29045248Y-107124000D01*
X32290248Y-101369000D02*
X32290248Y-104879000D01*
%TO.C,U1*%
D14*
X207677248Y-89297000D02*
X207677248Y-104297000D01*
X217677248Y-114297000D02*
X252677248Y-114297000D01*
X252677248Y-79297000D02*
X217677248Y-79297000D01*
X262677248Y-104297000D02*
X262677248Y-89297000D01*
X207677248Y-89297000D02*
G75*
G02*
X217677248Y-79297000I10000000J0D01*
G01*
X217677248Y-114297000D02*
G75*
G02*
X207677248Y-104297000I0J10000000D01*
G01*
X252677248Y-79297000D02*
G75*
G02*
X262677248Y-89297000I0J-10000000D01*
G01*
X262677248Y-104297000D02*
G75*
G02*
X252677248Y-114297000I-10000000J0D01*
G01*
%TO.C,X1*%
D10*
X48060248Y-82354000D02*
X48060248Y-110354000D01*
X48060248Y-110354000D02*
X57060248Y-110354000D01*
X48560248Y-82854000D02*
X48560248Y-94554000D01*
X48560248Y-94554000D02*
X48560248Y-97604000D01*
X48560248Y-94554000D02*
X49560248Y-94554000D01*
X48560248Y-97604000D02*
X48560248Y-109854000D01*
X48560248Y-109854000D02*
X56560248Y-109854000D01*
X49560248Y-94554000D02*
X49560248Y-97604000D01*
X49560248Y-97604000D02*
X48560248Y-97604000D01*
X56560248Y-82854000D02*
X48560248Y-82854000D01*
X56560248Y-109854000D02*
X56560248Y-82854000D01*
X57060248Y-82354000D02*
X48060248Y-82354000D01*
X57060248Y-110354000D02*
X57060248Y-82354000D01*
%TO.C,U3*%
D18*
X165251648Y-107149000D02*
X165251648Y-84179000D01*
X168011648Y-84179000D02*
X165251648Y-84179000D01*
X168011648Y-107149000D02*
X165251648Y-107149000D01*
X168011648Y-107149000D02*
X168011648Y-84179000D01*
X168011648Y-108419000D02*
X168011648Y-109799000D01*
X168011648Y-109799000D02*
X166631648Y-109799000D01*
X177545248Y-107149000D02*
X177545248Y-84179000D01*
X180305248Y-84179000D02*
X177545248Y-84179000D01*
X180305248Y-107149000D02*
X177545248Y-107149000D01*
X180305248Y-107149000D02*
X180305248Y-84179000D01*
X180305248Y-108419000D02*
X180305248Y-109799000D01*
X180305248Y-109799000D02*
X178925248Y-109799000D01*
D19*
X164870448Y-83839000D02*
X180670448Y-83839000D01*
X180670448Y-110139000D01*
X164870448Y-110139000D01*
X164870448Y-83839000D01*
%TO.C,U5*%
D14*
X184497848Y-90227000D02*
X184497848Y-105467000D01*
X184497848Y-90227000D02*
X205082848Y-90227000D01*
X184497848Y-105467000D02*
X205082848Y-105467000D01*
D11*
X184635848Y-90989000D02*
X185270848Y-90354000D01*
X184635848Y-92259000D02*
X184635848Y-90989000D01*
X185270848Y-90354000D02*
X186540848Y-90354000D01*
X185270848Y-92894000D02*
X184635848Y-92259000D01*
X186540848Y-92894000D02*
X185270848Y-92894000D01*
X186540848Y-92894000D02*
X187175848Y-92259000D01*
X187175848Y-90989000D02*
X186540848Y-90354000D01*
X187175848Y-90989000D02*
X187810848Y-90354000D01*
X187810848Y-90354000D02*
X189080848Y-90354000D01*
X187810848Y-92894000D02*
X187175848Y-92259000D01*
X189080848Y-92894000D02*
X187810848Y-92894000D01*
X189080848Y-92894000D02*
X189715848Y-92259000D01*
X189715848Y-90989000D02*
X189080848Y-90354000D01*
X189715848Y-90989000D02*
X190350848Y-90354000D01*
X190350848Y-90354000D02*
X191620848Y-90354000D01*
X190350848Y-92894000D02*
X189715848Y-92259000D01*
X191620848Y-90354000D02*
X192255848Y-90989000D01*
X191620848Y-92894000D02*
X190350848Y-92894000D01*
X192255848Y-90989000D02*
X192890848Y-90354000D01*
X192255848Y-92259000D02*
X191620848Y-92894000D01*
X192890848Y-90354000D02*
X194160848Y-90354000D01*
X192890848Y-92894000D02*
X192255848Y-92259000D01*
X194160848Y-90354000D02*
X194795848Y-90989000D01*
X194160848Y-92894000D02*
X192890848Y-92894000D01*
X194795848Y-90989000D02*
X195430848Y-90354000D01*
X194795848Y-92259000D02*
X194160848Y-92894000D01*
X195430848Y-90354000D02*
X196700848Y-90354000D01*
X195430848Y-92894000D02*
X194795848Y-92259000D01*
X196700848Y-92894000D02*
X195430848Y-92894000D01*
X196700848Y-92894000D02*
X197335848Y-92259000D01*
X197335848Y-90989000D02*
X196700848Y-90354000D01*
X197335848Y-90989000D02*
X197970848Y-90354000D01*
D14*
X197589848Y-98278800D02*
X197843848Y-98024800D01*
X197589848Y-98278800D02*
X197843848Y-98532800D01*
X197589848Y-98278800D02*
X199367848Y-98278800D01*
X197869248Y-98558200D02*
X197869248Y-97999400D01*
D11*
X197970848Y-90354000D02*
X199240848Y-90354000D01*
X197970848Y-92894000D02*
X197335848Y-92259000D01*
D14*
X198859848Y-97872400D02*
X198732848Y-97516800D01*
X198986848Y-97643800D02*
X198732848Y-97516800D01*
X198986848Y-97643800D02*
X198859848Y-97872400D01*
D11*
X199240848Y-90354000D02*
X199875848Y-90989000D01*
X199240848Y-92894000D02*
X197970848Y-92894000D01*
D14*
X199748848Y-98151800D02*
X200129848Y-98024800D01*
D11*
X199875848Y-90989000D02*
X200510848Y-90354000D01*
X199875848Y-92259000D02*
X199240848Y-92894000D01*
D14*
X199875848Y-97897800D02*
X199748848Y-98151800D01*
X199875848Y-97897800D02*
X200129848Y-98024800D01*
X200256848Y-99040800D02*
X200764848Y-99040800D01*
D11*
X200510848Y-90354000D02*
X201780848Y-90354000D01*
X200510848Y-92894000D02*
X199875848Y-92259000D01*
D14*
X200510848Y-99294800D02*
X200256848Y-99040800D01*
X200510848Y-99294800D02*
X200510848Y-97389800D01*
X200510848Y-99294800D02*
X200764848Y-99040800D01*
D11*
X201780848Y-90354000D02*
X202415848Y-90989000D01*
X201780848Y-92894000D02*
X200510848Y-92894000D01*
X202415848Y-90989000D02*
X203050848Y-90354000D01*
X202415848Y-92259000D02*
X201780848Y-92894000D01*
D14*
X202441248Y-99396400D02*
X202568248Y-99167800D01*
X202441248Y-99396400D02*
X202695248Y-99523400D01*
X202568248Y-99167800D02*
X202695248Y-99523400D01*
D11*
X203050848Y-90354000D02*
X204320848Y-90354000D01*
X203050848Y-92894000D02*
X202415848Y-92259000D01*
X204320848Y-92894000D02*
X203050848Y-92894000D01*
X204320848Y-92894000D02*
X204955848Y-92259000D01*
X204955848Y-90989000D02*
X204320848Y-90354000D01*
X204955848Y-92259000D02*
X204955848Y-90989000D01*
D14*
X205082848Y-90227000D02*
X205082848Y-105467000D01*
X198986848Y-98913800D02*
G75*
G02*
X198986848Y-97643800I0J635000D01*
G01*
X201018848Y-97897800D02*
G75*
G02*
X199875848Y-97897800I-571500J0D01*
G01*
X202263449Y-97466000D02*
G75*
G02*
X202492048Y-99396400I-114106J-992248D01*
G01*
X202669848Y-98431200D02*
G75*
G02*
X201603048Y-98431200I-533400J0D01*
G01*
X201603048Y-98431200D02*
G75*
G02*
X202669848Y-98431200I533400J0D01*
G01*
X202263448Y-98431200D02*
G75*
G02*
X202009448Y-98431200I-127000J0D01*
G01*
X202009448Y-98431200D02*
G75*
G02*
X202263448Y-98431200I127000J0D01*
G01*
%TO.C,U2*%
D18*
X95206448Y-107149000D02*
X95206448Y-84179000D01*
X97966448Y-84179000D02*
X95206448Y-84179000D01*
X97966448Y-107149000D02*
X95206448Y-107149000D01*
X97966448Y-107149000D02*
X97966448Y-84179000D01*
X97966448Y-108419000D02*
X97966448Y-109799000D01*
X97966448Y-109799000D02*
X96586448Y-109799000D01*
X107500048Y-107149000D02*
X107500048Y-84179000D01*
X110260048Y-84179000D02*
X107500048Y-84179000D01*
X110260048Y-107149000D02*
X107500048Y-107149000D01*
X110260048Y-107149000D02*
X110260048Y-84179000D01*
X110260048Y-108419000D02*
X110260048Y-109799000D01*
X110260048Y-109799000D02*
X108880048Y-109799000D01*
D19*
X94825248Y-83839000D02*
X110625248Y-83839000D01*
X110625248Y-110139000D01*
X94825248Y-110139000D01*
X94825248Y-83839000D01*
%TO.C,U6*%
D11*
X20590248Y-81274000D02*
X20590248Y-90274000D01*
X20590248Y-81274000D02*
X31490248Y-81274000D01*
X20590248Y-90274000D02*
X25690248Y-90274000D01*
X31490248Y-81274000D02*
X31490248Y-83174000D01*
X31490248Y-90274000D02*
X30390248Y-90274000D01*
X31490248Y-90274000D02*
X31490248Y-88174000D01*
%TO.C,U4*%
D10*
X77205248Y-110399000D02*
G75*
G02*
X74905248Y-110399000I-1150000J0D01*
G01*
X74905248Y-110399000D02*
G75*
G02*
X77205248Y-110399000I1150000J0D01*
G01*
X82055248Y-110399000D02*
G75*
G02*
X70055248Y-110399000I-6000000J0D01*
G01*
X70055248Y-110399000D02*
G75*
G02*
X82055248Y-110399000I6000000J0D01*
G01*
%TO.C,J2*%
X35340248Y-101369000D02*
X35340248Y-104879000D01*
X38585248Y-99124000D02*
X40095248Y-99124000D01*
X38585248Y-107124000D02*
X40095248Y-107124000D01*
X43340248Y-101369000D02*
X43340248Y-104879000D01*
%TD*%
M02*
