%TF.GenerationSoftware,KiCad,Pcbnew,10.0.0*%
%TF.CreationDate,2026-05-06T08:11:05-05:00*%
%TF.ProjectId,window,77696e64-6f77-42e6-9b69-6361645f7063,rev?*%
%TF.SameCoordinates,Original*%
%TF.FileFunction,Copper,L1,Top*%
%TF.FilePolarity,Positive*%
%FSLAX46Y46*%
G04 Gerber Fmt 4.6, Leading zero omitted, Abs format (unit mm)*
G04 Created by KiCad (PCBNEW 10.0.0) date 2026-05-06 08:11:05*
%MOMM*%
%LPD*%
G01*
G04 APERTURE LIST*
G04 Aperture macros list*
%AMRoundRect*
0 Rectangle with rounded corners*
0 $1 Rounding radius*
0 $2 $3 $4 $5 $6 $7 $8 $9 X,Y pos of 4 corners*
0 Add a 4 corners polygon primitive as box body*
4,1,4,$2,$3,$4,$5,$6,$7,$8,$9,$2,$3,0*
0 Add four circle primitives for the rounded corners*
1,1,$1+$1,$2,$3*
1,1,$1+$1,$4,$5*
1,1,$1+$1,$6,$7*
1,1,$1+$1,$8,$9*
0 Add four rect primitives between the rounded corners*
20,1,$1+$1,$2,$3,$4,$5,0*
20,1,$1+$1,$4,$5,$6,$7,0*
20,1,$1+$1,$6,$7,$8,$9,0*
20,1,$1+$1,$8,$9,$2,$3,0*%
%AMOutline5P*
0 Free polygon, 5 corners , with rotation*
0 The origin of the aperture is its center*
0 number of corners: always 5*
0 $1 to $10 corner X, Y*
0 $11 Rotation angle, in degrees counterclockwise*
0 create outline with 5 corners*
4,1,5,$1,$2,$3,$4,$5,$6,$7,$8,$9,$10,$1,$2,$11*%
%AMOutline6P*
0 Free polygon, 6 corners , with rotation*
0 The origin of the aperture is its center*
0 number of corners: always 6*
0 $1 to $12 corner X, Y*
0 $13 Rotation angle, in degrees counterclockwise*
0 create outline with 6 corners*
4,1,6,$1,$2,$3,$4,$5,$6,$7,$8,$9,$10,$11,$12,$1,$2,$13*%
%AMOutline7P*
0 Free polygon, 7 corners , with rotation*
0 The origin of the aperture is its center*
0 number of corners: always 7*
0 $1 to $14 corner X, Y*
0 $15 Rotation angle, in degrees counterclockwise*
0 create outline with 7 corners*
4,1,7,$1,$2,$3,$4,$5,$6,$7,$8,$9,$10,$11,$12,$13,$14,$1,$2,$15*%
%AMOutline8P*
0 Free polygon, 8 corners , with rotation*
0 The origin of the aperture is its center*
0 number of corners: always 8*
0 $1 to $16 corner X, Y*
0 $17 Rotation angle, in degrees counterclockwise*
0 create outline with 8 corners*
4,1,8,$1,$2,$3,$4,$5,$6,$7,$8,$9,$10,$11,$12,$13,$14,$15,$16,$1,$2,$17*%
G04 Aperture macros list end*
%TA.AperFunction,ComponentPad*%
%ADD10C,2.850000*%
%TD*%
%TA.AperFunction,ComponentPad*%
%ADD11C,4.445000*%
%TD*%
%TA.AperFunction,SMDPad,CuDef*%
%ADD12R,1.143000X1.270000*%
%TD*%
%TA.AperFunction,SMDPad,CuDef*%
%ADD13RoundRect,0.508000X0.000010X0.000010X-0.000010X0.000010X-0.000010X-0.000010X0.000010X-0.000010X0*%
%TD*%
%TA.AperFunction,ComponentPad*%
%ADD14R,1.524000X1.524000*%
%TD*%
%TA.AperFunction,ComponentPad*%
%ADD15Outline8P,-0.762000X0.315631X-0.315631X0.762000X0.315631X0.762000X0.762000X0.315631X0.762000X-0.315631X0.315631X-0.762000X-0.315631X-0.762000X-0.762000X-0.315631X0.000000*%
%TD*%
%TA.AperFunction,ComponentPad*%
%ADD16C,1.778000*%
%TD*%
%TA.AperFunction,ComponentPad*%
%ADD17C,1.700000*%
%TD*%
%TA.AperFunction,ComponentPad*%
%ADD18R,1.700000X1.700000*%
%TD*%
%TA.AperFunction,ComponentPad*%
%ADD19C,1.879600*%
%TD*%
%TA.AperFunction,ComponentPad*%
%ADD20O,2.700000X5.400000*%
%TD*%
%TA.AperFunction,ComponentPad*%
%ADD21O,5.400000X2.700000*%
%TD*%
%TA.AperFunction,ComponentPad*%
%ADD22C,1.120000*%
%TD*%
%TA.AperFunction,ComponentPad*%
%ADD23C,1.960000*%
%TD*%
%TA.AperFunction,ViaPad*%
%ADD24C,0.609600*%
%TD*%
%TA.AperFunction,Conductor*%
%ADD25C,0.381000*%
%TD*%
%TA.AperFunction,Conductor*%
%ADD26C,0.254000*%
%TD*%
G04 APERTURE END LIST*
D10*
%TO.P,J1,1_1,1_1_1*%
%TO.N,GND*%
X25790248Y-106624000D03*
%TO.P,J1,1_2,1_1_2*%
X30790248Y-106624000D03*
%TO.P,J1,1_3,1_1_3*%
X30790248Y-99624000D03*
%TO.P,J1,1_4,1_1_4*%
X25790248Y-99624000D03*
%TD*%
D11*
%TO.P,M4,1,1_1*%
%TO.N,GNDPWR*%
X271880248Y-77874000D03*
%TD*%
D12*
%TO.P,R6,1,1_1*%
%TO.N,GNDPWR*%
X264387248Y-77874000D03*
%TO.P,R6,2,2_2*%
%TO.N,GND*%
X266165248Y-77874000D03*
%TD*%
D13*
%TO.P,FUD3,1,1_1*%
%TO.N,unconnected-(FUD3-Pad1)*%
X31215248Y-116609000D03*
%TD*%
D14*
%TO.P,U1,P1_01,VIN_P1_01*%
%TO.N,unconnected-(U1-VIN-PadP1_01)*%
X256640248Y-82954000D03*
D15*
%TO.P,U1,P1_02,AIN6(3.3V)GPIO87_P1_02*%
%TO.N,/BUTTON_L*%
X256640248Y-85494000D03*
%TO.P,U1,P1_03,DRVVBUS_P1_03*%
%TO.N,unconnected-(U1-DRVVBUS-PadP1_03)*%
X254100248Y-82954000D03*
%TO.P,U1,P1_04,GPIO89_P1_04*%
%TO.N,/BUTTON_B*%
X254100248Y-85494000D03*
%TO.P,U1,P1_05,VBUS_P1_05*%
%TO.N,unconnected-(U1-VBUS-PadP1_05)*%
X251560248Y-82954000D03*
%TO.P,U1,P1_06,SPI0.CS_P1_06*%
%TO.N,/BUTTON_S*%
X251560248Y-85494000D03*
%TO.P,U1,P1_07,USB1.VIN_P1_07*%
%TO.N,unconnected-(U1-USB1.VIN-PadP1_07)*%
X249020248Y-82954000D03*
%TO.P,U1,P1_08,SPI0.CLK_P1_08*%
%TO.N,/BUTTON_R*%
X249020248Y-85494000D03*
%TO.P,U1,P1_09,USB1.D-_P1_09*%
%TO.N,unconnected-(U1-USB1.D--PadP1_09)*%
X246480248Y-82954000D03*
%TO.P,U1,P1_10,SPI0.MISO_P1_10*%
%TO.N,unconnected-(U1-SPI0.MISO-PadP1_10)*%
X246480248Y-85494000D03*
%TO.P,U1,P1_11,USB1.D+_P1_11*%
%TO.N,unconnected-(U1-USB1.D+-PadP1_11)*%
X243940248Y-82954000D03*
%TO.P,U1,P1_12,SPI0.MOSI_P1_12*%
%TO.N,/BUZZER*%
X243940248Y-85494000D03*
%TO.P,U1,P1_13,USB1.ID_P1_13*%
%TO.N,unconnected-(U1-USB1.ID-PadP1_13)*%
X241400248Y-82954000D03*
%TO.P,U1,P1_14,3.3V@1_P1_14*%
%TO.N,+5V*%
X241400248Y-85494000D03*
%TO.P,U1,P1_15,GND@1_P1_15*%
%TO.N,unconnected-(U1-GND@1-PadP1_15)*%
X238860248Y-82954000D03*
%TO.P,U1,P1_16,GND@2_P1_16*%
%TO.N,GND*%
X238860248Y-85494000D03*
%TO.P,U1,P1_17,AIN.VREF-_P1_17*%
%TO.N,unconnected-(U1-AIN.VREF--PadP1_17)*%
X236320248Y-82954000D03*
%TO.P,U1,P1_18,AIN.VREF+_P1_18*%
%TO.N,unconnected-(U1-AIN.VREF+-PadP1_18)*%
X236320248Y-85494000D03*
%TO.P,U1,P1_19,AIN0(1.8V)_P1_19*%
%TO.N,unconnected-(U1-AIN0(1.8V)-PadP1_19)*%
X233780248Y-82954000D03*
%TO.P,U1,P1_20,GPIO20_P1_20*%
%TO.N,/LED_BLUE2*%
X233780248Y-85494000D03*
%TO.P,U1,P1_21,AIN1(1.8V)_P1_21*%
%TO.N,unconnected-(U1-AIN1(1.8V)-PadP1_21)*%
X231240248Y-82954000D03*
%TO.P,U1,P1_22,GND@3_P1_22*%
%TO.N,GND*%
X231240248Y-85494000D03*
%TO.P,U1,P1_23,AIN2(1.8V)_P1_23*%
%TO.N,unconnected-(U1-AIN2(1.8V)-PadP1_23)*%
X228700248Y-82954000D03*
%TO.P,U1,P1_24,VOUT@1_P1_24*%
%TO.N,unconnected-(U1-VOUT@1-PadP1_24)*%
X228700248Y-85494000D03*
%TO.P,U1,P1_25,AIN3(1.8V)_P1_25*%
%TO.N,unconnected-(U1-AIN3(1.8V)-PadP1_25)*%
X226160248Y-82954000D03*
%TO.P,U1,P1_26,I2C2.SDA_P1_26*%
%TO.N,unconnected-(U1-I2C2.SDA-PadP1_26)*%
X226160248Y-85494000D03*
%TO.P,U1,P1_27,AIN4(1.8V)_P1_27*%
%TO.N,unconnected-(U1-AIN4(1.8V)-PadP1_27)*%
X223620248Y-82954000D03*
%TO.P,U1,P1_28,I2C2.SCL_P1_28*%
%TO.N,unconnected-(U1-I2C2.SCL-PadP1_28)*%
X223620248Y-85494000D03*
%TO.P,U1,P1_29,PRU0.7_P1_29*%
%TO.N,unconnected-(U1-PRU0.7-PadP1_29)*%
X221080248Y-82954000D03*
%TO.P,U1,P1_30,UART0.TX_P1_30*%
%TO.N,unconnected-(U1-UART0.TX-PadP1_30)*%
X221080248Y-85494000D03*
%TO.P,U1,P1_31,PRU0.4_P1_31*%
%TO.N,unconnected-(U1-PRU0.4-PadP1_31)*%
X218540248Y-82954000D03*
%TO.P,U1,P1_32,UART0.RX_P1_32*%
%TO.N,unconnected-(U1-UART0.RX-PadP1_32)*%
X218540248Y-85494000D03*
%TO.P,U1,P1_33,PRU0.1_P1_33*%
%TO.N,unconnected-(U1-PRU0.1-PadP1_33)*%
X216000248Y-82954000D03*
%TO.P,U1,P1_34,GPIO26_P1_34*%
%TO.N,unconnected-(U1-GPIO26-PadP1_34)*%
X216000248Y-85494000D03*
%TO.P,U1,P1_35,PRU1.10_P1_35*%
%TO.N,unconnected-(U1-PRU1.10-PadP1_35)*%
X213460248Y-82954000D03*
%TO.P,U1,P1_36,PWM0A_P1_36*%
%TO.N,unconnected-(U1-PWM0A-PadP1_36)*%
X213460248Y-85494000D03*
D14*
%TO.P,U1,P2_01,PWM1A_P2_01*%
%TO.N,/LED_OUTPUT_ENABLE*%
X256640248Y-108354000D03*
D15*
%TO.P,U1,P2_02,GPIO59_P2_02*%
%TO.N,/LED_RED1*%
X256640248Y-110894000D03*
%TO.P,U1,P2_03,GPIO23_P2_03*%
%TO.N,/LED_RED2*%
X254100248Y-108354000D03*
%TO.P,U1,P2_04,GPIO58_P2_04*%
%TO.N,/LED_GREEN1*%
X254100248Y-110894000D03*
%TO.P,U1,P2_05,UART4.RX_P2_05*%
%TO.N,unconnected-(U1-UART4.RX-PadP2_05)*%
X251560248Y-108354000D03*
%TO.P,U1,P2_06,GPIO57_P2_06*%
%TO.N,/LED_BLUE1*%
X251560248Y-110894000D03*
%TO.P,U1,P2_07,UART4.TX_P2_07*%
%TO.N,unconnected-(U1-UART4.TX-PadP2_07)*%
X249020248Y-108354000D03*
%TO.P,U1,P2_08,GPIO60_P2_08*%
%TO.N,/LED_LATCH*%
X249020248Y-110894000D03*
%TO.P,U1,P2_09,I2C1.SCL_P2_09*%
%TO.N,/I2C_SCL*%
X246480248Y-108354000D03*
%TO.P,U1,P2_10,GPIO52_P2_10*%
%TO.N,/LED_CLOCK*%
X246480248Y-110894000D03*
%TO.P,U1,P2_11,I2C1.SDA_P2_11*%
%TO.N,/I2C_SDA*%
X243940248Y-108354000D03*
%TO.P,U1,P2_12,PWR.BTN_P2_12*%
%TO.N,unconnected-(U1-PWR.BTN-PadP2_12)*%
X243940248Y-110894000D03*
%TO.P,U1,P2_13,VOUT@2_P2_13*%
%TO.N,unconnected-(U1-VOUT@2-PadP2_13)*%
X241400248Y-108354000D03*
%TO.P,U1,P2_14,BAT.VIN_P2_14*%
%TO.N,unconnected-(U1-BAT.VIN-PadP2_14)*%
X241400248Y-110894000D03*
%TO.P,U1,P2_15,GND@4_P2_15*%
%TO.N,GND*%
X238860248Y-108354000D03*
%TO.P,U1,P2_16,BAT.TEMP_P2_16*%
%TO.N,unconnected-(U1-BAT.TEMP-PadP2_16)*%
X238860248Y-110894000D03*
%TO.P,U1,P2_17,GPIO65_P2_17*%
%TO.N,unconnected-(U1-GPIO65-PadP2_17)*%
X236320248Y-108354000D03*
%TO.P,U1,P2_18,GPIO47_P2_18*%
%TO.N,/LED_SELECT_D*%
X236320248Y-110894000D03*
%TO.P,U1,P2_19,GPIO27_P2_19*%
%TO.N,unconnected-(U1-GPIO27-PadP2_19)*%
X233780248Y-108354000D03*
%TO.P,U1,P2_20,GPIO64_P2_20*%
%TO.N,unconnected-(U1-GPIO64-PadP2_20)*%
X233780248Y-110894000D03*
%TO.P,U1,P2_21,GND@5_P2_21*%
%TO.N,GND*%
X231240248Y-108354000D03*
%TO.P,U1,P2_22,GPIO46_P2_22*%
%TO.N,/LED_SELECT_C*%
X231240248Y-110894000D03*
%TO.P,U1,P2_23,3.3V@2_P2_23*%
%TO.N,+3V3*%
X228700248Y-108354000D03*
%TO.P,U1,P2_24,GPIO44_P2_24*%
%TO.N,/LED_SELECT_A*%
X228700248Y-110894000D03*
%TO.P,U1,P2_25,SPI1.MOSI_P2_25*%
%TO.N,unconnected-(U1-SPI1.MOSI-PadP2_25)*%
X226160248Y-108354000D03*
%TO.P,U1,P2_26,RESET#_P2_26*%
%TO.N,unconnected-(U1-RESET#-PadP2_26)*%
X226160248Y-110894000D03*
%TO.P,U1,P2_27,SPI1.MISO_P2_27*%
%TO.N,unconnected-(U1-SPI1.MISO-PadP2_27)*%
X223620248Y-108354000D03*
%TO.P,U1,P2_28,PRU0.6_P2_28*%
%TO.N,unconnected-(U1-PRU0.6-PadP2_28)*%
X223620248Y-110894000D03*
%TO.P,U1,P2_29,SPI1.CLK_P2_29*%
%TO.N,unconnected-(U1-SPI1.CLK-PadP2_29)*%
X221080248Y-108354000D03*
%TO.P,U1,P2_30,PRU0.3_P2_30*%
%TO.N,unconnected-(U1-PRU0.3-PadP2_30)*%
X221080248Y-110894000D03*
%TO.P,U1,P2_31,SPI1.CS_P2_31*%
%TO.N,unconnected-(U1-SPI1.CS-PadP2_31)*%
X218540248Y-108354000D03*
%TO.P,U1,P2_32,PRU0.2_P2_32*%
%TO.N,unconnected-(U1-PRU0.2-PadP2_32)*%
X218540248Y-110894000D03*
%TO.P,U1,P2_33,GPIO45_P2_33*%
%TO.N,/LED_SELECT_B*%
X216000248Y-108354000D03*
%TO.P,U1,P2_34,PRU0.5_P2_34*%
%TO.N,/LED_GREEN_2*%
X216000248Y-110894000D03*
%TO.P,U1,P2_35,AIN5(3.3V)GPIO86_P2_35*%
%TO.N,unconnected-(U1-AIN5(3.3V)GPIO86-PadP2_35)*%
X213460248Y-108354000D03*
%TO.P,U1,P2_36,AIN7(1.8V)_P2_36*%
%TO.N,unconnected-(U1-AIN7(1.8V)-PadP2_36)*%
X213460248Y-110894000D03*
%TD*%
D16*
%TO.P,X1,1,R1_1*%
%TO.N,Net-(X1-R1)*%
X51290248Y-87464000D03*
%TO.P,X1,2,G1_2*%
%TO.N,Net-(X1-G1)*%
X53830248Y-87464000D03*
%TO.P,X1,3,B1_3*%
%TO.N,Net-(X1-B1)*%
X51290248Y-90004000D03*
%TO.P,X1,4,GND_4*%
%TO.N,GND*%
X53830248Y-90004000D03*
%TO.P,X1,5,R2_5*%
%TO.N,Net-(X1-R2)*%
X51290248Y-92544000D03*
%TO.P,X1,6,G2_6*%
%TO.N,Net-(X1-G2)*%
X53830248Y-92544000D03*
%TO.P,X1,7,B2_7*%
%TO.N,Net-(X1-B2)*%
X51290248Y-95084000D03*
%TO.P,X1,8,GND_8*%
%TO.N,GND*%
X53830248Y-95084000D03*
%TO.P,X1,9,A_9*%
%TO.N,Net-(X1-A)*%
X51290248Y-97624000D03*
%TO.P,X1,10,B_10*%
%TO.N,Net-(X1-B)*%
X53830248Y-97624000D03*
%TO.P,X1,11,C_11*%
%TO.N,Net-(X1-C)*%
X51290248Y-100164000D03*
%TO.P,X1,12,D_12*%
%TO.N,Net-(X1-D)*%
X53830248Y-100164000D03*
%TO.P,X1,13,CLK_13*%
%TO.N,Net-(X1-CLK)*%
X51290248Y-102704000D03*
%TO.P,X1,14,LAT_14*%
%TO.N,Net-(X1-LAT)*%
X53830248Y-102704000D03*
%TO.P,X1,15,OE_15*%
%TO.N,Net-(X1-OE)*%
X51290248Y-105244000D03*
%TO.P,X1,16,GND_16*%
%TO.N,GND*%
X53830248Y-105244000D03*
%TD*%
D17*
%TO.P,U3,A1*%
%TO.N,/BUZZER*%
X178925248Y-105879000D03*
%TO.P,U3,A2*%
%TO.N,/LED_LATCH*%
X178925248Y-103339000D03*
%TO.P,U3,A3*%
%TO.N,/LED_SELECT_D*%
X178925248Y-100799000D03*
%TO.P,U3,A4*%
%TO.N,/LED_SELECT_B*%
X178925248Y-98259000D03*
%TO.P,U3,A5*%
%TO.N,unconnected-(U3-PadA5)*%
X178925248Y-95719000D03*
%TO.P,U3,A6*%
%TO.N,/LED_GREEN_2*%
X178925248Y-93179000D03*
%TO.P,U3,A7*%
%TO.N,unconnected-(U3-PadA7)*%
X178925248Y-90639000D03*
%TO.P,U3,A8*%
%TO.N,/LED_GREEN1*%
X178925248Y-88099000D03*
%TO.P,U3,B1*%
%TO.N,Net-(U3-PadB1)*%
X166631648Y-105879000D03*
%TO.P,U3,B2*%
%TO.N,Net-(X1-LAT)*%
X166631648Y-103339000D03*
%TO.P,U3,B3*%
%TO.N,Net-(X1-D)*%
X166631648Y-100799000D03*
%TO.P,U3,B4*%
%TO.N,Net-(X1-B)*%
X166631648Y-98259000D03*
%TO.P,U3,B5*%
%TO.N,unconnected-(U3-PadB5)*%
X166631648Y-95719000D03*
%TO.P,U3,B6*%
%TO.N,Net-(X1-G2)*%
X166631648Y-93179000D03*
%TO.P,U3,B7*%
%TO.N,unconnected-(U3-PadB7)*%
X166631648Y-90639000D03*
%TO.P,U3,B8*%
%TO.N,Net-(X1-G1)*%
X166631648Y-88099000D03*
%TO.P,U3,GND*%
%TO.N,GND*%
X166631648Y-85559000D03*
%TO.P,U3,OE*%
%TO.N,+3V3*%
X178925248Y-85559000D03*
D18*
%TO.P,U3,VCCA*%
X178925248Y-108419000D03*
%TO.P,U3,VCCB*%
%TO.N,+5V*%
X166631648Y-108419000D03*
%TD*%
D12*
%TO.P,R3,1,1_1*%
%TO.N,+3V3*%
X148572248Y-115404000D03*
%TO.P,R3,2,2_2*%
%TO.N,/BUTTON_B*%
X150350248Y-115404000D03*
%TD*%
D11*
%TO.P,M3,1,1_1*%
%TO.N,GNDPWR*%
X271880248Y-115974000D03*
%TD*%
D12*
%TO.P,R4,1,1_1*%
%TO.N,+3V3*%
X152382248Y-110324000D03*
%TO.P,R4,2,2_2*%
%TO.N,/BUTTON_L*%
X154160248Y-110324000D03*
%TD*%
D19*
%TO.P,U5,1,VCC_1*%
%TO.N,+3V3*%
X203635048Y-91624000D03*
%TO.P,U5,2,GND_2*%
%TO.N,GND*%
X201095048Y-91624000D03*
%TO.P,U5,3,SCL_3*%
%TO.N,/I2C_SCL*%
X198555048Y-91624000D03*
%TO.P,U5,4,SDA_4*%
%TO.N,/I2C_SDA*%
X196015048Y-91624000D03*
%TO.P,U5,5,XDA_5*%
%TO.N,unconnected-(U5-XDA-Pad5)*%
X193475048Y-91624000D03*
%TO.P,U5,6,XCL_6*%
%TO.N,unconnected-(U5-XCL-Pad6)*%
X190935048Y-91624000D03*
%TO.P,U5,7,ADD_7*%
%TO.N,unconnected-(U5-ADD-Pad7)*%
X188395048Y-91624000D03*
%TO.P,U5,8,INT_8*%
%TO.N,unconnected-(U5-INT-Pad8)*%
X185855048Y-91624000D03*
%TD*%
D17*
%TO.P,U2,A1*%
%TO.N,/LED_OUTPUT_ENABLE*%
X108880048Y-105879000D03*
%TO.P,U2,A2*%
%TO.N,/LED_CLOCK*%
X108880048Y-103339000D03*
%TO.P,U2,A3*%
%TO.N,/LED_SELECT_C*%
X108880048Y-100799000D03*
%TO.P,U2,A4*%
%TO.N,/LED_SELECT_A*%
X108880048Y-98259000D03*
%TO.P,U2,A5*%
%TO.N,/LED_BLUE2*%
X108880048Y-95719000D03*
%TO.P,U2,A6*%
%TO.N,/LED_RED2*%
X108880048Y-93179000D03*
%TO.P,U2,A7*%
%TO.N,/LED_BLUE1*%
X108880048Y-90639000D03*
%TO.P,U2,A8*%
%TO.N,/LED_RED1*%
X108880048Y-88099000D03*
%TO.P,U2,B1*%
%TO.N,Net-(X1-OE)*%
X96586448Y-105879000D03*
%TO.P,U2,B2*%
%TO.N,Net-(X1-CLK)*%
X96586448Y-103339000D03*
%TO.P,U2,B3*%
%TO.N,Net-(X1-C)*%
X96586448Y-100799000D03*
%TO.P,U2,B4*%
%TO.N,Net-(X1-A)*%
X96586448Y-98259000D03*
%TO.P,U2,B5*%
%TO.N,Net-(X1-B2)*%
X96586448Y-95719000D03*
%TO.P,U2,B6*%
%TO.N,Net-(X1-R2)*%
X96586448Y-93179000D03*
%TO.P,U2,B7*%
%TO.N,Net-(X1-B1)*%
X96586448Y-90639000D03*
%TO.P,U2,B8*%
%TO.N,Net-(X1-R1)*%
X96586448Y-88099000D03*
%TO.P,U2,GND*%
%TO.N,GND*%
X96586448Y-85559000D03*
%TO.P,U2,OE*%
%TO.N,+3V3*%
X108880048Y-85559000D03*
D18*
%TO.P,U2,VCCA*%
X108880048Y-108419000D03*
%TO.P,U2,VCCB*%
%TO.N,+5V*%
X96586448Y-108419000D03*
%TD*%
D12*
%TO.P,R5,1,1_1*%
%TO.N,+3V3*%
X153271248Y-83654000D03*
%TO.P,R5,2,2_2*%
%TO.N,/BUTTON_R*%
X155049248Y-83654000D03*
%TD*%
D11*
%TO.P,M2,1,1_1*%
%TO.N,GNDPWR*%
X24230248Y-77874000D03*
%TD*%
D20*
%TO.P,U6,+5V*%
%TO.N,+5V*%
X30890248Y-85774000D03*
%TO.P,U6,GND*%
%TO.N,GND*%
X24640248Y-85774000D03*
D21*
%TO.P,U6,GNDPWR*%
%TO.N,GNDPWR*%
X28040248Y-90574000D03*
%TD*%
D22*
%TO.P,U4,+,+_+*%
%TO.N,Net-(U3-PadB1)*%
X76055248Y-113649000D03*
%TO.P,U4,-,-_-*%
%TO.N,GND*%
X76055248Y-107149000D03*
%TD*%
D13*
%TO.P,FUD5,1,1_1*%
%TO.N,unconnected-(FUD5-Pad1)*%
X31215248Y-77874000D03*
%TD*%
%TO.P,FUD6,1,1_1*%
%TO.N,unconnected-(FUD6-Pad1)*%
X266165248Y-116609000D03*
%TD*%
D12*
%TO.P,R2,1,1_1*%
%TO.N,+3V3*%
X148572248Y-78574000D03*
%TO.P,R2,2,2_2*%
%TO.N,/BUTTON_S*%
X150350248Y-78574000D03*
%TD*%
D10*
%TO.P,J2,1_1,1_1_1*%
%TO.N,+5V*%
X36840248Y-106624000D03*
%TO.P,J2,1_2,1_1_2*%
X41840248Y-106624000D03*
%TO.P,J2,1_3,1_1_3*%
X41840248Y-99624000D03*
%TO.P,J2,1_4,1_1_4*%
X36840248Y-99624000D03*
%TD*%
D11*
%TO.P,M1,1,1_1*%
%TO.N,GNDPWR*%
X24230248Y-115974000D03*
%TD*%
D23*
%TO.P,SW3,1,1_1*%
%TO.N,/BUTTON_S*%
X144435248Y-78654000D03*
%TO.P,SW3,2,2_2*%
%TO.N,GND*%
X144435248Y-83654000D03*
%TO.P,SW3,3,3_3*%
%TO.N,/BUTTON_S*%
X131935248Y-78654000D03*
%TO.P,SW3,4,4_4*%
%TO.N,GND*%
X131935248Y-83654000D03*
%TD*%
%TO.P,SW1,1,1_1*%
%TO.N,/BUTTON_L*%
X129295248Y-93854000D03*
%TO.P,SW1,2,2_2*%
%TO.N,GND*%
X129295248Y-98854000D03*
%TO.P,SW1,3,3_3*%
%TO.N,/BUTTON_L*%
X116795248Y-93854000D03*
%TO.P,SW1,4,4_4*%
%TO.N,GND*%
X116795248Y-98854000D03*
%TD*%
%TO.P,SW4,1,1_1*%
%TO.N,/BUTTON_R*%
X159675248Y-93894000D03*
%TO.P,SW4,2,2_2*%
%TO.N,GND*%
X159675248Y-98894000D03*
%TO.P,SW4,3,3_3*%
%TO.N,/BUTTON_R*%
X147175248Y-93894000D03*
%TO.P,SW4,4,4_4*%
%TO.N,GND*%
X147175248Y-98894000D03*
%TD*%
%TO.P,SW2,1,1_1*%
%TO.N,/BUTTON_B*%
X144535248Y-110364000D03*
%TO.P,SW2,2,2_2*%
%TO.N,GND*%
X144535248Y-115364000D03*
%TO.P,SW2,3,3_3*%
%TO.N,/BUTTON_B*%
X132035248Y-110364000D03*
%TO.P,SW2,4,4_4*%
%TO.N,GND*%
X132035248Y-115364000D03*
%TD*%
D24*
%TO.N,GND*%
X264160000Y-80010000D03*
%TO.N,/BUTTON_B*%
X151505948Y-115124000D03*
X155790248Y-115124000D03*
%TO.N,/LED_SELECT_D*%
X203790248Y-108938200D03*
%TO.N,+3V3*%
X203790248Y-89624000D03*
X114790248Y-85124000D03*
X145311548Y-91624000D03*
%TO.N,/LED_GREEN_2*%
X208290248Y-111414200D03*
%TD*%
%TO.N,GNDPWR*%
D25*
X24230248Y-77874000D02*
X28040248Y-81684000D01*
X26880248Y-118624000D02*
X24230248Y-115974000D01*
X24230248Y-115974000D02*
X22007748Y-113751500D01*
X28040248Y-81684000D02*
X28040248Y-89474000D01*
X22007748Y-80096500D02*
X24230248Y-77874000D01*
X269290248Y-118564000D02*
X269290248Y-118624000D01*
X271880248Y-115974000D02*
X269290248Y-118564000D01*
X264387248Y-77627000D02*
X266890248Y-75124000D01*
X264387248Y-77874000D02*
X264387248Y-77627000D01*
X271880248Y-77874000D02*
X274790248Y-80784000D01*
X269290248Y-118624000D02*
X26880248Y-118624000D01*
X274790248Y-113064000D02*
X271880248Y-115974000D01*
X22007748Y-113751500D02*
X22007748Y-80096500D01*
X26980248Y-75124000D02*
X266890248Y-75124000D01*
X266890248Y-75124000D02*
X269130248Y-75124000D01*
X269130248Y-75124000D02*
X271880248Y-77874000D01*
X274790248Y-80784000D02*
X274790248Y-113064000D01*
X24230248Y-77874000D02*
X26980248Y-75124000D01*
%TO.N,GND*%
X266165248Y-78890000D02*
X265045248Y-80010000D01*
X266165248Y-77874000D02*
X266165248Y-78890000D01*
X265045248Y-80010000D02*
X264160000Y-80010000D01*
%TO.N,/BUTTON_L*%
D26*
X154160248Y-109494000D02*
X154160248Y-110324000D01*
X129295248Y-93854000D02*
X138520248Y-93854000D01*
X129295248Y-93854000D02*
X116795248Y-93854000D01*
X138520248Y-93854000D02*
X154160248Y-109494000D01*
%TO.N,/BUTTON_B*%
X155790248Y-115124000D02*
X268790248Y-115124000D01*
X144535248Y-110364000D02*
X145921177Y-110364000D01*
X268790248Y-115124000D02*
X268790248Y-91624000D01*
X258730248Y-90124000D02*
X254100248Y-85494000D01*
X267290248Y-90124000D02*
X258730248Y-90124000D01*
X145921177Y-110364000D02*
X150350248Y-114793071D01*
X150350248Y-115404000D02*
X151225948Y-115404000D01*
X150350248Y-114793071D02*
X150350248Y-115404000D01*
X268790248Y-91624000D02*
X267290248Y-90124000D01*
X151225948Y-115404000D02*
X151505948Y-115124000D01*
X144535248Y-110364000D02*
X132035248Y-110364000D01*
%TO.N,/BUTTON_S*%
X144435248Y-78654000D02*
X131935248Y-78654000D01*
X150096248Y-77431000D02*
X150350248Y-77685000D01*
X144435248Y-78654000D02*
X145658248Y-77431000D01*
X145658248Y-77431000D02*
X150096248Y-77431000D01*
X150350248Y-77685000D02*
X150350248Y-78574000D01*
%TO.N,/BUTTON_R*%
X155049248Y-89268000D02*
X155049248Y-83654000D01*
X159675248Y-93894000D02*
X155049248Y-89268000D01*
X159675248Y-93894000D02*
X147175248Y-93894000D01*
%TO.N,+5V*%
D25*
X74790248Y-113313817D02*
X74790248Y-117862000D01*
X96586448Y-108419000D02*
X79685065Y-108419000D01*
X53078248Y-117862000D02*
X41840248Y-106624000D01*
X36840248Y-106624000D02*
X36840248Y-99624000D01*
X36840248Y-106624000D02*
X41840248Y-106624000D01*
X36840248Y-99624000D02*
X41840248Y-99624000D01*
X79685065Y-108419000D02*
X74790248Y-113313817D01*
X41840248Y-99624000D02*
X41840248Y-106624000D01*
X74790248Y-117862000D02*
X53078248Y-117862000D01*
%TO.N,/LED_GREEN1*%
D26*
X177567248Y-86741000D02*
X177567248Y-84996497D01*
X178362745Y-84201000D02*
X203085668Y-84201000D01*
X203085668Y-84201000D02*
X205590848Y-86706180D01*
X255290248Y-109704000D02*
X254100248Y-110894000D01*
X252978696Y-105616000D02*
X255290248Y-107927552D01*
X214000668Y-105616000D02*
X252978696Y-105616000D01*
X203508668Y-95124000D02*
X214000668Y-105616000D01*
X178925248Y-88099000D02*
X177567248Y-86741000D01*
X255290248Y-107927552D02*
X255290248Y-109704000D01*
X205590848Y-86706180D02*
X205590847Y-93041821D01*
X177567248Y-84996497D02*
X178362745Y-84201000D01*
X205590847Y-93041821D02*
X203508668Y-95124000D01*
%TO.N,/I2C_SCL*%
X245210248Y-107084000D02*
X246480248Y-108354000D01*
X198555048Y-91624000D02*
X214015048Y-107084000D01*
X214015048Y-107084000D02*
X245210248Y-107084000D01*
%TO.N,/I2C_SDA*%
X202790248Y-95124000D02*
X213790248Y-106124000D01*
X245866696Y-106124000D02*
X247623248Y-107880552D01*
X205082848Y-86916600D02*
X205082848Y-92831400D01*
X205082848Y-92831400D02*
X202790248Y-95124000D01*
X247623248Y-108827448D02*
X246953696Y-109497000D01*
X196015048Y-91624000D02*
X201015048Y-86624000D01*
X213790248Y-106124000D02*
X245866696Y-106124000D01*
X204790248Y-86624000D02*
X205082848Y-86916600D01*
X247623248Y-107880552D02*
X247623248Y-108827448D01*
X245083248Y-109497000D02*
X243940248Y-108354000D01*
X201015048Y-86624000D02*
X204790248Y-86624000D01*
X246953696Y-109497000D02*
X245083248Y-109497000D01*
%TO.N,/LED_SELECT_D*%
X233082249Y-114131999D02*
X236320248Y-110894000D01*
X203790248Y-108938200D02*
X208984048Y-114132000D01*
X210500669Y-114131999D02*
X233082249Y-114131999D01*
X208984048Y-114132000D02*
X210500669Y-114131999D01*
%TO.N,+3V3*%
D25*
X152382248Y-111340000D02*
X152382248Y-110324000D01*
X107458548Y-86980500D02*
X108880048Y-85559000D01*
X152382248Y-115721500D02*
X152382248Y-110324000D01*
X114790248Y-85124000D02*
X114355248Y-85559000D01*
X151493248Y-116610500D02*
X152382248Y-115721500D01*
X153271248Y-83654000D02*
X148572248Y-78955000D01*
X148572248Y-88363300D02*
X145311548Y-91624000D01*
X178925248Y-85559000D02*
X181790248Y-88424000D01*
X148572248Y-115975500D02*
X149207248Y-116610500D01*
X203635048Y-91624000D02*
X203635048Y-89779200D01*
X149207248Y-116610500D02*
X151493248Y-116610500D01*
X181790248Y-88424000D02*
X181790248Y-105624000D01*
X148572248Y-115404000D02*
X148572248Y-115975500D01*
X152572748Y-111530500D02*
X152382248Y-111340000D01*
X148572248Y-78955000D02*
X148572248Y-78574000D01*
X114355248Y-85559000D02*
X108880048Y-85559000D01*
X203635048Y-89779200D02*
X203790248Y-89624000D01*
X178995248Y-108419000D02*
X178925248Y-108419000D01*
X178925248Y-108419000D02*
X175813748Y-111530500D01*
X108880048Y-108419000D02*
X107458548Y-106997500D01*
X148572248Y-78574000D02*
X148572248Y-88363300D01*
X175813748Y-111530500D02*
X152572748Y-111530500D01*
X107458548Y-106997500D02*
X107458548Y-86980500D01*
X181790248Y-105624000D02*
X178995248Y-108419000D01*
%TO.N,/LED_GREEN_2*%
D26*
X208290248Y-111624000D02*
X210290248Y-113624000D01*
X213270248Y-113624000D02*
X216000248Y-110894000D01*
X208290248Y-111414200D02*
X208290248Y-111624000D01*
X210290248Y-113624000D02*
X213270248Y-113624000D01*
%TO.N,Net-(X1-R1)*%
X97944448Y-84996497D02*
X97148951Y-84201000D01*
X54553248Y-84201000D02*
X51290248Y-87464000D01*
X97148951Y-84201000D02*
X54553248Y-84201000D01*
X97944448Y-86741000D02*
X97944448Y-84996497D01*
X96586448Y-88099000D02*
X97944448Y-86741000D01*
%TO.N,Net-(X1-B1)*%
X50020248Y-88734000D02*
X51290248Y-90004000D01*
X50020248Y-86937948D02*
X50020248Y-88734000D01*
X97359371Y-83693000D02*
X53265196Y-83693000D01*
X96586448Y-90639000D02*
X98452447Y-88773001D01*
X53265196Y-83693000D02*
X50020248Y-86937948D01*
X98452447Y-84786076D02*
X97359371Y-83693000D01*
X98452447Y-88773001D02*
X98452447Y-84786076D01*
%TO.N,Net-(X1-R2)*%
X98960446Y-90805002D02*
X98960446Y-84575655D01*
X53054775Y-83185001D02*
X49512248Y-86727528D01*
X97569791Y-83185000D02*
X92290248Y-83185001D01*
X92290248Y-83185001D02*
X53054775Y-83185001D01*
X49512248Y-90766000D02*
X51290248Y-92544000D01*
X49512248Y-86727528D02*
X49512248Y-90766000D01*
X98960446Y-84575655D02*
X97569791Y-83185000D01*
X96586448Y-93179000D02*
X98960446Y-90805002D01*
%TO.N,Net-(X1-B2)*%
X52844354Y-82677002D02*
X97780211Y-82677000D01*
X51290248Y-95084000D02*
X49004248Y-92798000D01*
X49004248Y-86517108D02*
X52844354Y-82677002D01*
X99468445Y-92837003D02*
X96586448Y-95719000D01*
X49004248Y-92798000D02*
X49004248Y-86517108D01*
X99468445Y-84365234D02*
X99468445Y-92837003D01*
X97780211Y-82677000D02*
X99468445Y-84365234D01*
%TO.N,Net-(X1-A)*%
X100139187Y-84317556D02*
X97990631Y-82169000D01*
X100139187Y-84317556D02*
X100139187Y-94706261D01*
X52633933Y-82169003D02*
X48496248Y-86306688D01*
X48496248Y-94830000D02*
X51290248Y-97624000D01*
X48496248Y-86306688D02*
X48496248Y-94830000D01*
X97990631Y-82169000D02*
X52633933Y-82169003D01*
X100139187Y-94706261D02*
X96586448Y-98259000D01*
%TO.N,Net-(X1-C)*%
X100824987Y-84284936D02*
X98201051Y-81661000D01*
X98201051Y-81661000D02*
X52423512Y-81661004D01*
X47988248Y-96862000D02*
X51290248Y-100164000D01*
X100824987Y-84284936D02*
X100824987Y-96560461D01*
X47988248Y-86096268D02*
X47988248Y-96862000D01*
X100824987Y-96560461D02*
X96586448Y-100799000D01*
X52423512Y-81661004D02*
X47988248Y-86096268D01*
%TO.N,Net-(X1-CLK)*%
X47480248Y-98894000D02*
X51290248Y-102704000D01*
X101510787Y-84252316D02*
X98411471Y-81153000D01*
X52213091Y-81153005D02*
X47480248Y-85885848D01*
X101510787Y-84252316D02*
X101510787Y-98414661D01*
X98411471Y-81153000D02*
X52213091Y-81153005D01*
X47480248Y-85885848D02*
X47480248Y-98894000D01*
X101510787Y-98414661D02*
X96586448Y-103339000D01*
%TO.N,Net-(X1-OE)*%
X46972248Y-100926000D02*
X51290248Y-105244000D01*
X102290248Y-84313357D02*
X98621891Y-80645000D01*
X98621891Y-80645000D02*
X52002670Y-80645006D01*
X46972248Y-85675428D02*
X46972248Y-100926000D01*
X102290248Y-84313357D02*
X102290248Y-100175200D01*
X102290248Y-100175200D02*
X96586448Y-105879000D01*
X52002670Y-80645006D02*
X46972248Y-85675428D01*
%TO.N,Net-(U3-PadB1)*%
X130724278Y-76742989D02*
X164409237Y-76742989D01*
X112290248Y-95177020D02*
X113816758Y-93650510D01*
X164409237Y-76742989D02*
X172790248Y-85124000D01*
X112290248Y-117925500D02*
X112290248Y-95177020D01*
X113816758Y-93650510D02*
X130724278Y-76742989D01*
X82290248Y-117624000D02*
X82591748Y-117925500D01*
X82591748Y-117925500D02*
X112290248Y-117925500D01*
X80030248Y-117624000D02*
X82290248Y-117624000D01*
X76055248Y-113649000D02*
X80030248Y-117624000D01*
X172790248Y-99720400D02*
X166631648Y-105879000D01*
X172790248Y-85124000D02*
X172790248Y-99720400D01*
%TD*%
M02*
